<?xml version="1.0" encoding="UTF-8" standalone="no"?>
<svg
   xmlns:dc="http://purl.org/dc/elements/1.1/"
   xmlns:cc="http://creativecommons.org/ns#"
   xmlns:rdf="http://www.w3.org/1999/02/22-rdf-syntax-ns#"
   xmlns:svg="http://www.w3.org/2000/svg"
   xmlns="http://www.w3.org/2000/svg"
   xmlns:sodipodi="http://sodipodi.sourceforge.net/DTD/sodipodi-0.dtd"
   xmlns:inkscape="http://www.inkscape.org/namespaces/inkscape"
   version="1.1"
   id="svg2"
   xml:space="preserve"
   width="1122.5197"
   height="793.70081"
   viewBox="0 0 1122.5197 793.70081"
   sodipodi:docname="bcopper.svg"
   inkscape:version="1.0.1 (3bc2e813f5, 2020-09-07)"><metadata
     id="metadata8"><rdf:RDF><cc:Work
         rdf:about=""><dc:format>image/svg+xml</dc:format><dc:type
           rdf:resource="http://purl.org/dc/dcmitype/StillImage" /><dc:title></dc:title></cc:Work></rdf:RDF></metadata><defs
     id="defs6"><clipPath
       clipPathUnits="userSpaceOnUse"
       id="clipPath20"><path
         d="M 0,0 H 841 V 595 H 0 Z"
         id="path18" /></clipPath></defs><sodipodi:namedview
     pagecolor="#ffffff"
     bordercolor="#666666"
     borderopacity="1"
     objecttolerance="10"
     gridtolerance="10"
     guidetolerance="10"
     inkscape:pageopacity="0"
     inkscape:pageshadow="2"
     inkscape:window-width="1867"
     inkscape:window-height="1043"
     id="namedview4"
     showgrid="false"
     inkscape:zoom="0.5348363"
     inkscape:cx="353.09736"
     inkscape:cy="512.05699"
     inkscape:window-x="53"
     inkscape:window-y="0"
     inkscape:window-maximized="1"
     inkscape:current-layer="g10" /><g
     id="g10"
     inkscape:groupmode="layer"
     inkscape:label="bcopper"
     transform="matrix(1.3333333,0,0,1.3333333,0,2.184252e-5)"><g
       id="g12" /><g
       id="g2262"><g
         id="g1887"><g
           id="g24"><path
             d="m 312.961,276.18 h -7.199"
             style="fill:none;stroke:#000000;stroke-width:1.98;stroke-linecap:round;stroke-linejoin:round;stroke-miterlimit:10;stroke-dasharray:none;stroke-opacity:1"
             id="path26" /></g><g
           id="g28"><path
             d="m 320.16,283.379 -7.199,-7.199"
             style="fill:none;stroke:#000000;stroke-width:1.98;stroke-linecap:round;stroke-linejoin:round;stroke-miterlimit:10;stroke-dasharray:none;stroke-opacity:1"
             id="path30" /></g><g
           id="g32"><path
             d="M 320.16,297.781 V 283.379"
             style="fill:none;stroke:#000000;stroke-width:1.98;stroke-linecap:round;stroke-linejoin:round;stroke-miterlimit:10;stroke-dasharray:none;stroke-opacity:1"
             id="path34" /></g><g
           id="g36"><path
             d="m 316.559,301.379 3.601,-3.598"
             style="fill:none;stroke:#000000;stroke-width:1.98;stroke-linecap:round;stroke-linejoin:round;stroke-miterlimit:10;stroke-dasharray:none;stroke-opacity:1"
             id="path38" /></g><g
           id="g40"><path
             d="m 291.359,304.98 14.403,-14.402"
             style="fill:none;stroke:#000000;stroke-width:1.98;stroke-linecap:round;stroke-linejoin:round;stroke-miterlimit:10;stroke-dasharray:none;stroke-opacity:1"
             id="path42" /></g><g
           id="g44"><path
             d="M 316.559,333.781 V 301.379"
             style="fill:none;stroke:#000000;stroke-width:1.98;stroke-linecap:round;stroke-linejoin:round;stroke-miterlimit:10;stroke-dasharray:none;stroke-opacity:1"
             id="path46" /></g><g
           id="g48"><path
             d="m 323.762,340.98 -7.203,-7.199"
             style="fill:none;stroke:#000000;stroke-width:1.98;stroke-linecap:round;stroke-linejoin:round;stroke-miterlimit:10;stroke-dasharray:none;stroke-opacity:1"
             id="path50" /></g><g
           id="g52"><path
             d="m 298.559,348.18 -7.2,-7.2"
             style="fill:none;stroke:#000000;stroke-width:1.98;stroke-linecap:round;stroke-linejoin:round;stroke-miterlimit:10;stroke-dasharray:none;stroke-opacity:1"
             id="path54" /></g><g
           id="g56"><path
             d="m 291.359,340.98 v -36"
             style="fill:none;stroke:#000000;stroke-width:1.98;stroke-linecap:round;stroke-linejoin:round;stroke-miterlimit:10;stroke-dasharray:none;stroke-opacity:1"
             id="path58" /></g><g
           id="g60"><path
             d="M 347.535,340.98 H 323.762"
             style="fill:none;stroke:#000000;stroke-width:1.98;stroke-linecap:round;stroke-linejoin:round;stroke-miterlimit:10;stroke-dasharray:none;stroke-opacity:1"
             id="path62" /></g><g
           id="g64"><path
             d="m 353.879,334.637 -6.344,6.343"
             style="fill:none;stroke:#000000;stroke-width:1.98;stroke-linecap:round;stroke-linejoin:round;stroke-miterlimit:10;stroke-dasharray:none;stroke-opacity:1"
             id="path66" /></g><g
           id="g68"><path
             d="M 348.961,348.18 H 298.559"
             style="fill:none;stroke:#000000;stroke-width:1.98;stroke-linecap:round;stroke-linejoin:round;stroke-miterlimit:10;stroke-dasharray:none;stroke-opacity:1"
             id="path70" /></g><g
           id="g72"><path
             d="m 352.559,344.578 -3.598,3.602"
             style="fill:none;stroke:#000000;stroke-width:1.98;stroke-linecap:round;stroke-linejoin:round;stroke-miterlimit:10;stroke-dasharray:none;stroke-opacity:1"
             id="path74" /></g><g
           id="g76"><path
             d="m 352.559,343.801 v 0.777"
             style="fill:none;stroke:#000000;stroke-width:1.98;stroke-linecap:round;stroke-linejoin:round;stroke-miterlimit:10;stroke-dasharray:none;stroke-opacity:1"
             id="path78" /></g><g
           id="g80"><path
             d="m 361.727,334.637 -9.168,9.164"
             style="fill:none;stroke:#000000;stroke-width:1.98;stroke-linecap:round;stroke-linejoin:round;stroke-miterlimit:10;stroke-dasharray:none;stroke-opacity:1"
             id="path82" /></g><g
           id="g84"><path
             d="M 369.586,334.637 V 320.355"
             style="fill:none;stroke:#000000;stroke-width:0.99;stroke-linecap:round;stroke-linejoin:round;stroke-miterlimit:10;stroke-dasharray:none;stroke-opacity:1"
             id="path86" /></g><g
           id="g88"><path
             d="M 357.809,326.578 V 310.23"
             style="fill:none;stroke:#000000;stroke-width:1.98;stroke-linecap:round;stroke-linejoin:round;stroke-miterlimit:10;stroke-dasharray:none;stroke-opacity:1"
             id="path90" /></g><g
           id="g92"><path
             d="m 357.809,310.23 -5.25,-5.25"
             style="fill:none;stroke:#000000;stroke-width:1.98;stroke-linecap:round;stroke-linejoin:round;stroke-miterlimit:10;stroke-dasharray:none;stroke-opacity:1"
             id="path94" /></g><g
           id="g96"><path
             d="m 373.516,326.578 7.199,-7.199"
             style="fill:none;stroke:#000000;stroke-width:1.98;stroke-linecap:round;stroke-linejoin:round;stroke-miterlimit:10;stroke-dasharray:none;stroke-opacity:1"
             id="path98" /></g><g
           id="g100"><path
             d="m 377.43,334.637 v -4.125"
             style="fill:none;stroke:#000000;stroke-width:1.98;stroke-linecap:round;stroke-linejoin:round;stroke-miterlimit:10;stroke-dasharray:none;stroke-opacity:1"
             id="path102" /></g><g
           id="g104"><path
             d="m 369.586,320.355 v -66.75"
             style="fill:none;stroke:#000000;stroke-width:1.98;stroke-linecap:round;stroke-linejoin:round;stroke-miterlimit:10;stroke-dasharray:none;stroke-opacity:1"
             id="path106" /></g><g
           id="g108"><path
             d="M 334.246,326.578 V 236.895"
             style="fill:none;stroke:#000000;stroke-width:1.98;stroke-linecap:round;stroke-linejoin:round;stroke-miterlimit:10;stroke-dasharray:none;stroke-opacity:1"
             id="path110" /></g><g
           id="g112"><path
             d="m 334.246,236.895 7.516,-7.516"
             style="fill:none;stroke:#000000;stroke-width:1.98;stroke-linecap:round;stroke-linejoin:round;stroke-miterlimit:10;stroke-dasharray:none;stroke-opacity:1"
             id="path114" /></g><g
           id="g116"><path
             d="m 352.559,304.98 v -64.8"
             style="fill:none;stroke:#000000;stroke-width:1.98;stroke-linecap:round;stroke-linejoin:round;stroke-miterlimit:10;stroke-dasharray:none;stroke-opacity:1"
             id="path118" /></g><g
           id="g120"><path
             d="M 380.715,319.379 V 240.84"
             style="fill:none;stroke:#000000;stroke-width:1.98;stroke-linecap:round;stroke-linejoin:round;stroke-miterlimit:10;stroke-dasharray:none;stroke-opacity:1"
             id="path122" /></g><g
           id="g124"><path
             d="m 349.949,320.371 -4.59,-4.59"
             style="fill:none;stroke:#000000;stroke-width:1.98;stroke-linecap:round;stroke-linejoin:round;stroke-miterlimit:10;stroke-dasharray:none;stroke-opacity:1"
             id="path126" /></g><g
           id="g128"><path
             d="m 349.949,326.578 v -6.207"
             style="fill:none;stroke:#000000;stroke-width:1.98;stroke-linecap:round;stroke-linejoin:round;stroke-miterlimit:10;stroke-dasharray:none;stroke-opacity:1"
             id="path130" /></g><g
           id="g132"><path
             d="m 428.16,247.379 h 25.199"
             style="fill:none;stroke:#000000;stroke-width:1.98;stroke-linecap:round;stroke-linejoin:round;stroke-miterlimit:10;stroke-dasharray:none;stroke-opacity:1"
             id="path134" /></g><g
           id="g136"><path
             d="m 442.559,283.379 -18,-18"
             style="fill:none;stroke:#000000;stroke-width:1.98;stroke-linecap:round;stroke-linejoin:round;stroke-miterlimit:10;stroke-dasharray:none;stroke-opacity:1"
             id="path138" /></g><g
           id="g140"><path
             d="M 449.762,276.18 428.16,254.578"
             style="fill:none;stroke:#000000;stroke-width:1.98;stroke-linecap:round;stroke-linejoin:round;stroke-miterlimit:10;stroke-dasharray:none;stroke-opacity:1"
             id="path142" /></g><g
           id="g144"><path
             d="M 413.762,254.578 428.16,240.18"
             style="fill:none;stroke:#000000;stroke-width:1.98;stroke-linecap:round;stroke-linejoin:round;stroke-miterlimit:10;stroke-dasharray:none;stroke-opacity:1"
             id="path146" /></g><g
           id="g148"><path
             d="M 413.762,265.379 V 254.578"
             style="fill:none;stroke:#000000;stroke-width:1.98;stroke-linecap:round;stroke-linejoin:round;stroke-miterlimit:10;stroke-dasharray:none;stroke-opacity:1"
             id="path150" /></g><g
           id="g152"><path
             d="m 485.762,276.18 -32.403,32.398"
             style="fill:none;stroke:#000000;stroke-width:1.98;stroke-linecap:round;stroke-linejoin:round;stroke-miterlimit:10;stroke-dasharray:none;stroke-opacity:1"
             id="path154" /></g><g
           id="g156"><path
             d="m 467.762,276.18 -10.801,10.8"
             style="fill:none;stroke:#000000;stroke-width:1.98;stroke-linecap:round;stroke-linejoin:round;stroke-miterlimit:10;stroke-dasharray:none;stroke-opacity:1"
             id="path158" /></g><g
           id="g160"><path
             d="m 474.961,276.18 h -7.199"
             style="fill:none;stroke:#000000;stroke-width:1.98;stroke-linecap:round;stroke-linejoin:round;stroke-miterlimit:10;stroke-dasharray:none;stroke-opacity:1"
             id="path162" /></g><g
           id="g164"><path
             d="m 442.559,286.98 v -3.601"
             style="fill:none;stroke:#000000;stroke-width:1.98;stroke-linecap:round;stroke-linejoin:round;stroke-miterlimit:10;stroke-dasharray:none;stroke-opacity:1"
             id="path166" /></g><g
           id="g168"><path
             d="m 449.762,286.98 v -10.8"
             style="fill:none;stroke:#000000;stroke-width:1.98;stroke-linecap:round;stroke-linejoin:round;stroke-miterlimit:10;stroke-dasharray:none;stroke-opacity:1"
             id="path170" /></g><g
           id="g172"><path
             d="m 420.961,272.578 -7.199,-7.199"
             style="fill:none;stroke:#000000;stroke-width:1.98;stroke-linecap:round;stroke-linejoin:round;stroke-miterlimit:10;stroke-dasharray:none;stroke-opacity:1"
             id="path174" /></g><g
           id="g176"><path
             d="m 413.762,308.578 h 3.597"
             style="fill:none;stroke:#000000;stroke-width:1.98;stroke-linecap:round;stroke-linejoin:round;stroke-miterlimit:10;stroke-dasharray:none;stroke-opacity:1"
             id="path178" /></g><g
           id="g180"><path
             d="m 417.359,308.578 v 7.203"
             style="fill:none;stroke:#000000;stroke-width:1.98;stroke-linecap:round;stroke-linejoin:round;stroke-miterlimit:10;stroke-dasharray:none;stroke-opacity:1"
             id="path182" /></g><g
           id="g184"><path
             d="m 420.961,301.379 h -3.602"
             style="fill:none;stroke:#000000;stroke-width:1.98;stroke-linecap:round;stroke-linejoin:round;stroke-miterlimit:10;stroke-dasharray:none;stroke-opacity:1"
             id="path186" /></g><g
           id="g188"><path
             d="m 428.16,308.578 -7.199,-7.199"
             style="fill:none;stroke:#000000;stroke-width:1.98;stroke-linecap:round;stroke-linejoin:round;stroke-miterlimit:10;stroke-dasharray:none;stroke-opacity:1"
             id="path190" /></g><g
           id="g192"><path
             d="m 485.762,276.18 v -3.602"
             style="fill:none;stroke:#000000;stroke-width:1.98;stroke-linecap:round;stroke-linejoin:round;stroke-miterlimit:10;stroke-dasharray:none;stroke-opacity:1"
             id="path194" /></g><g
           id="g196"><path
             d="m 460.559,247.379 h -7.2"
             style="fill:none;stroke:#000000;stroke-width:1.98;stroke-linecap:round;stroke-linejoin:round;stroke-miterlimit:10;stroke-dasharray:none;stroke-opacity:1"
             id="path198" /></g><g
           id="g200"><path
             d="M 485.762,272.578 460.559,247.379"
             style="fill:none;stroke:#000000;stroke-width:1.98;stroke-linecap:round;stroke-linejoin:round;stroke-miterlimit:10;stroke-dasharray:none;stroke-opacity:1"
             id="path202" /></g><g
           id="g204"><path
             d="m 482.16,250.98 v -3.601"
             style="fill:none;stroke:#000000;stroke-width:1.98;stroke-linecap:round;stroke-linejoin:round;stroke-miterlimit:10;stroke-dasharray:none;stroke-opacity:1"
             id="path206" /></g><g
           id="g208"><path
             d="M 453.359,308.578 H 438.961"
             style="fill:none;stroke:#000000;stroke-width:1.98;stroke-linecap:round;stroke-linejoin:round;stroke-miterlimit:10;stroke-dasharray:none;stroke-opacity:1"
             id="path210" /></g><g
           id="g212"><path
             d="M 464.16,337.379 H 438.961"
             style="fill:none;stroke:#000000;stroke-width:1.98;stroke-linecap:round;stroke-linejoin:round;stroke-miterlimit:10;stroke-dasharray:none;stroke-opacity:1"
             id="path214" /></g><g
           id="g216"><path
             d="M 438.961,337.379 428.16,326.578"
             style="fill:none;stroke:#000000;stroke-width:1.98;stroke-linecap:round;stroke-linejoin:round;stroke-miterlimit:10;stroke-dasharray:none;stroke-opacity:1"
             id="path218" /></g><g
           id="g220"><path
             d="m 428.16,326.578 v -18"
             style="fill:none;stroke:#000000;stroke-width:1.98;stroke-linecap:round;stroke-linejoin:round;stroke-miterlimit:10;stroke-dasharray:none;stroke-opacity:1"
             id="path222" /></g><g
           id="g224"><path
             d="m 453.359,322.98 7.2,-7.199"
             style="fill:none;stroke:#000000;stroke-width:1.98;stroke-linecap:round;stroke-linejoin:round;stroke-miterlimit:10;stroke-dasharray:none;stroke-opacity:1"
             id="path226" /></g><g
           id="g228"><path
             d="m 417.359,330.18 v -7.2"
             style="fill:none;stroke:#000000;stroke-width:1.98;stroke-linecap:round;stroke-linejoin:round;stroke-miterlimit:10;stroke-dasharray:none;stroke-opacity:1"
             id="path230" /></g><g
           id="g232"><path
             d="m 366.961,250.98 v -10.8"
             style="fill:none;stroke:#000000;stroke-width:1.98;stroke-linecap:round;stroke-linejoin:round;stroke-miterlimit:10;stroke-dasharray:none;stroke-opacity:1"
             id="path234" /></g><g
           id="g236"><path
             d="m 369.586,253.605 -2.625,-2.625"
             style="fill:none;stroke:#000000;stroke-width:1.98;stroke-linecap:round;stroke-linejoin:round;stroke-miterlimit:10;stroke-dasharray:none;stroke-opacity:1"
             id="path238" /></g><g
           id="g240"><path
             d="M 341.762,229.379 H 495.375"
             style="fill:none;stroke:#000000;stroke-width:1.98;stroke-linecap:round;stroke-linejoin:round;stroke-miterlimit:10;stroke-dasharray:none;stroke-opacity:1"
             id="path242" /></g><g
           id="g244"><path
             d="m 380.715,240.84 0.644,-0.66"
             style="fill:none;stroke:#000000;stroke-width:1.98;stroke-linecap:round;stroke-linejoin:round;stroke-miterlimit:10;stroke-dasharray:none;stroke-opacity:1"
             id="path246" /></g><g
           id="g248"><path
             d="m 417.359,236.578 h -10.8"
             style="fill:none;stroke:#000000;stroke-width:1.98;stroke-linecap:round;stroke-linejoin:round;stroke-miterlimit:10;stroke-dasharray:none;stroke-opacity:1"
             id="path250" /></g><g
           id="g252"><path
             d="m 406.559,236.578 -7.2,7.203"
             style="fill:none;stroke:#000000;stroke-width:1.98;stroke-linecap:round;stroke-linejoin:round;stroke-miterlimit:10;stroke-dasharray:none;stroke-opacity:1"
             id="path254" /></g><g
           id="g256"><path
             d="m 562.051,359.684 h -282.18 v -8.594 h 0.809 v 1.394 l 0.269,1.368 0.528,1.289 0.777,1.156 0.992,0.988 1.152,0.781 1.293,0.539 1.364,0.27 h 1.41 l 1.363,-0.27 1.293,-0.539 1.152,-0.781 0.993,-0.988 0.781,-1.156 0.523,-1.289 0.27,-1.368 v -1.394 l -0.27,-1.379 -0.074,-0.18 1.231,1.231 0.117,0.148 0.586,0.465 0.66,0.359 0.719,0.227 0.554,0.043 0.196,0.031 0.195,-0.031 h 50.012 l 0.195,0.031 0.195,-0.031 0.555,-0.043 0.719,-0.227 0.66,-0.359 0.359,-0.285 h 195.629 v 1.394 l 0.274,1.368 0.523,1.289 0.781,1.156 0.989,0.988 1.156,0.781 1.289,0.539 1.363,0.27 h 1.41 l 1.367,-0.27 1.29,-0.539 1.156,-0.781 0.988,-0.988 0.781,-1.156 0.524,-1.289 0.269,-1.368 v -1.394 l -0.269,-1.379 -0.524,-1.289 -0.781,-1.156 -0.988,-0.993 -1.156,-0.761 -1.29,-0.543 -1.367,-0.27 h -1.41 l -1.363,0.27 -1.289,0.543 -1.156,0.761 -0.989,0.993 -0.781,1.156 -0.523,1.289 -0.274,1.379 H 351.449 l 0.227,-0.18 0.121,-0.148 3.344,-3.332 0.132,-0.121 0.122,-0.149 0.359,-0.433 0.359,-0.676 0.168,-0.555 5.758,-5.762 h 0.195 l 0.993,-0.195 0.914,-0.391 0.839,-0.554 0.676,-0.672 0.672,0.672 0.844,0.554 0.93,0.391 0.972,0.195 h 1.004 l 0.992,-0.195 0.93,-0.391 0.84,-0.554 0.465,-0.465 h 1.425 l 0.165,0.961 0.914,0.406 0.992,0.223 1.004,0.031 0.992,-0.164 0.93,-0.359 0.238,-0.137 0.164,-0.961 -2.699,-2.699 -2.7,2.699 h -1.425 l 0.242,-0.238 0.375,-0.555 h 0.012 l 2.703,-2.699 h 1.601 l 2.703,2.699 0.946,-0.164 0.418,-0.918 0.211,-0.973 0.031,-1.008 -0.168,-0.988 -0.359,-0.945 -0.133,-0.238 -0.946,-0.168 -2.703,2.703 h -1.601 l -0.047,-0.047 0.808,-0.793 0.032,0.043 2.144,-2.145 0.512,-0.015 0.703,-0.703 v -3.829 h 1.141 v 3.829 l 0.707,0.703 0.988,0.015 0.555,-0.047 0.539,-0.164 0.496,-0.269 0.422,-0.344 0.359,-0.437 0.27,-0.493 0.148,-0.527 0.063,-0.57 -0.016,-0.989 -0.707,-0.707 h -5.024 v -1.136 h 0.059 v -0.047 h 1.141 v 0.047 h 3.824 l 0.707,-0.707 0.016,-0.989 -0.063,-0.554 -0.148,-0.543 -0.27,-0.481 -0.359,-0.433 -0.422,-0.36 -0.496,-0.254 -0.539,-0.168 -0.254,-0.027 0.328,-0.644 0.226,-0.723 0.059,-0.555 0.016,-0.195 -0.016,-0.18 v -71.91 h 1.066 l 0.571,-0.059 0.523,-0.164 0.496,-0.257 0.434,-0.36 0.348,-0.433 0.269,-0.496 0.164,-0.524 0.043,-0.555 v -8.507 l -0.043,-0.555 -0.164,-0.539 -0.269,-0.496 -0.348,-0.418 -0.434,-0.36 -0.496,-0.269 -0.301,-0.094 h 18.364 l -0.332,0.184 -0.586,0.476 -0.117,0.153 -6.946,6.929 -0.136,0.121 -0.122,0.149 -0.359,0.433 -0.359,0.661 -0.211,0.722 -0.059,0.571 -0.015,0.179 0.015,0.196 V 294 l -0.015,0.18 0.074,0.75 0.211,0.718 0.359,0.676 0.359,0.438 0.122,0.148 0.136,0.121 14.145,14.129 0.121,0.149 0.133,0.121 0.449,0.343 0.285,0.168 0.375,0.196 0.723,0.222 0.508,0.047 -0.122,0.117 -0.554,0.84 -0.391,0.934 -0.191,0.988 v 1.004 l 0.191,0.992 0.391,0.914 0.554,0.84 0.122,0.121 h -1.77 l -1.363,-1.351 v -0.914 l 0.148,-0.719 v -0.781 l -0.164,-0.766 -0.301,-0.719 -0.422,-0.644 -0.554,-0.559 -0.66,-0.433 -0.719,-0.301 -0.766,-0.149 h -0.777 l -0.766,0.149 -0.722,0.301 -0.661,0.433 -0.554,0.559 -0.418,0.644 -0.301,0.719 -0.164,0.766 v 0.781 l 0.148,0.719 v 2.308 l -0.015,0.18 0.015,0.195 0.063,0.555 0.207,0.723 0.152,0.269 0.207,0.402 0.364,0.438 0.117,0.148 0.136,0.121 0.676,0.661 -1.097,-0.465 -1.649,-0.317 h -1.68 l -1.636,0.317 -1.543,0.644 -1.395,0.93 -1.187,1.184 -0.93,1.394 -0.644,1.547 -0.329,1.648 v 1.668 l 0.329,1.649 0.644,1.547 0.93,1.394 1.187,1.184 1.395,0.93 1.543,0.644 1.636,0.332 h 1.68 l 1.649,-0.332 1.546,-0.644 1.395,-0.93 1.184,-1.184 0.929,-1.394 0.633,-1.547 0.328,-1.649 v -1.668 l -0.328,-1.648 -0.633,-1.547 -0.09,-0.133 0.168,0.09 0.719,0.227 0.555,0.043 0.195,0.031 0.195,-0.031 h 3.18 V 330 l -0.015,0.18 0.015,0.195 0.059,0.555 0.211,0.718 0.121,0.227 0.238,0.449 0.359,0.438 0.122,0.148 0.136,0.121 10.543,10.528 0.121,0.152 0.133,0.117 0.453,0.348 0.66,0.359 0.149,0.043 0.57,0.184 0.555,0.043 0.195,0.031 0.195,-0.031 h 0.211 l 0.028,0.031 0.812,0.539 0.914,0.375 0.946,0.195 h 0.988 l 0.945,-0.195 0.914,-0.375 0.813,-0.539 0.687,-0.691 0.543,-0.809 0.375,-0.902 0.196,-0.957 V 340.5 l 0.101,0.074 0.66,0.36 0.153,0.046 0.57,0.18 0.555,0.043 0.195,0.031 0.195,-0.031 h 17.91 v 0.438 l 0.043,0.554 0.164,0.524 0.274,0.496 0.344,0.433 0.433,0.364 0.496,0.254 0.524,0.164 0.57,0.058 h 8.492 l 0.571,-0.058 0.523,-0.164 0.496,-0.254 0.434,-0.364 0.343,-0.433 0.274,-0.496 0.164,-0.524 0.043,-0.554 v -6.153 l 0.375,0.375 -0.149,0.828 v 1.395 l 0.27,1.363 0.523,1.289 0.782,1.157 0.992,0.992 1.152,0.777 1.289,0.539 1.367,0.274 h 1.411 l 1.363,-0.274 1.293,-0.539 1.152,-0.777 0.586,-0.586 h 5.192 l 0.386,1.152 1.262,0.617 1.352,0.344 1.394,0.09 1.379,-0.195 1.32,-0.465 0.735,-0.391 0.39,-1.152 -4.109,-4.11 -4.109,4.11 h -5.192 l 0.406,-0.406 0.778,-1.157 0.527,-1.289 0.27,-1.363 v -0.422 h 0.211 l 0.195,1.395 0.449,1.32 0.391,0.723 1.152,0.402 4.125,-4.125 h 1.59 l 4.125,4.125 1.156,-0.402 0.613,-1.262 0.348,-1.352 0.074,-1.394 -0.195,-1.379 -0.449,-1.32 -0.391,-0.719 -1.156,-0.406 -4.125,4.109 h -1.59 l -4.125,-4.109 -1.152,0.406 -0.617,1.246 -0.344,1.363 -0.074,1.379 h -0.211 v -0.973 l -0.27,-1.382 -0.527,-1.289 -0.778,-1.157 -0.406,-0.402 h 5.192 l 4.109,4.125 4.109,-4.125 -0.39,-1.156 -1.258,-0.602 -1.352,-0.359 -1.394,-0.074 -1.379,0.195 -1.32,0.449 -0.739,0.391 -0.386,1.156 h -5.192 l -0.586,-0.586 -1.152,-0.766 -1.293,-0.539 -1.363,-0.269 h -1.411 l -0.808,0.164 -6.453,-6.449 -0.117,-0.153 -0.586,-0.476 -0.661,-0.364 -0.718,-0.207 -0.559,-0.062 -0.191,-0.016 -0.196,0.016 H 459 l 2.715,-2.715 h 52.949 l 0.047,0.555 0.164,0.527 0.27,0.492 0.343,0.438 0.438,0.359 0.496,0.254 0.523,0.164 0.571,0.063 2.968,-0.016 0.707,-0.719 v -5.804 h 1.137 v 5.804 l 0.707,0.719 2.969,0.016 0.57,-0.063 0.528,-0.164 0.492,-0.254 0.437,-0.359 0.344,-0.438 0.27,-0.492 0.164,-0.527 0.046,-0.555 -0.015,-2.984 -0.703,-0.703 h -12.75 l -0.707,0.703 -0.016,2.984 h -52.949 l 0.433,-0.434 h 27.016 l 0.195,0.032 0.196,-0.032 0.554,-0.046 0.719,-0.223 0.66,-0.359 0.586,-0.465 0.121,-0.153 6.825,-6.824 h 15.644 l 0.016,2.969 0.707,0.707 h 5.804 v -5.805 h 1.137 v 5.805 h 5.809 l 0.703,-0.707 0.015,-2.969 -0.046,-0.555 -0.164,-0.539 -0.27,-0.496 -0.344,-0.422 -0.437,-0.359 -0.492,-0.269 -0.528,-0.149 -0.57,-0.062 -2.969,0.015 -0.707,0.707 h -1.137 l -0.707,-0.707 -2.968,-0.015 -0.571,0.062 -0.523,0.149 -0.496,0.269 -0.438,0.359 -0.343,0.422 -0.27,0.496 -0.164,0.539 -0.047,0.555 H 499.02 l 6.332,-6.332 h 10.437 l 0.465,0.692 0.992,0.992 1.152,0.777 1.293,0.539 1.364,0.274 h 1.41 l 1.363,-0.274 1.293,-0.539 1.152,-0.777 0.993,-0.992 0.781,-1.157 0.523,-1.289 0.27,-1.363 v -1.395 l -0.27,-1.382 -0.523,-1.289 -0.781,-1.157 -0.993,-0.988 -0.687,-0.449 v -1.051 l 0.016,-0.195 -0.016,-0.18 -0.063,-0.57 -0.207,-0.719 -0.168,-0.301 -0.195,-0.359 -0.359,-0.438 -0.117,-0.148 -0.137,-0.121 -16.754,-16.739 v -9.316 h 0.418 l 0.57,-0.059 0.528,-0.164 0.492,-0.257 0.437,-0.36 0.344,-0.433 0.27,-0.496 0.164,-0.524 0.046,-0.555 v -8.507 l -0.046,-0.555 -0.164,-0.539 -0.27,-0.496 -0.344,-0.418 -0.437,-0.36 -0.492,-0.269 -0.528,-0.152 -0.57,-0.059 h -0.418 v -3.512 l 0.016,-0.195 -0.032,-0.391 5.879,5.883 -0.793,0.793 -0.781,1.156 -0.523,1.289 -0.274,1.379 v 1.399 l 0.274,1.363 0.523,1.289 0.781,1.156 0.989,0.989 1.156,0.781 1.289,0.539 1.363,0.269 h 1.41 l 1.367,-0.269 1.29,-0.539 1.156,-0.781 0.586,-0.582 h 5.187 l 0.391,1.152 1.262,0.617 1.347,0.344 1.395,0.09 1.383,-0.196 1.32,-0.464 0.734,-0.391 0.391,-1.152 -4.113,-4.114 -4.11,4.114 h -5.187 l 0.402,-0.407 0.781,-1.156 0.524,-1.289 0.269,-1.363 v -0.422 h 0.211 l 0.196,1.394 0.449,1.321 0.39,0.718 1.157,0.407 4.125,-4.125 h 1.589 l 4.125,4.125 1.157,-0.407 0.613,-1.257 0.344,-1.352 0.078,-1.394 -0.195,-1.379 -0.454,-1.321 -0.386,-0.718 -1.157,-0.407 -4.125,4.11 h -1.589 l -4.125,-4.11 -1.157,0.407 -0.613,1.242 -0.348,1.367 -0.074,1.379 h -0.211 v -0.977 l -0.269,-1.379 -0.524,-1.289 -0.781,-1.156 -0.402,-0.402 h 5.187 l 4.11,4.125 4.113,-4.125 -0.391,-1.157 -1.261,-0.601 -1.348,-0.359 -1.399,-0.075 -1.378,0.196 -1.321,0.449 -0.734,0.39 -0.391,1.157 h -5.187 l -0.586,-0.586 -0.676,-0.449 v -0.063 l -0.016,-0.18 -0.058,-0.57 -0.211,-0.719 -0.164,-0.3 -0.196,-0.36 -0.359,-0.433 -0.121,-0.153 -0.137,-0.121 -16.843,-16.828 h 5.699 v 0.977 l 0.195,0.957 0.375,0.902 0.539,0.809 0.692,0.691 0.808,0.539 0.918,0.375 0.945,0.195 h 0.989 l 0.945,-0.195 0.914,-0.375 0.813,-0.539 0.027,-0.031 h 16.816 l 8.567,8.566 v 6.856 l -0.692,0.449 -0.992,0.988 -0.777,1.156 -0.528,1.289 -0.269,1.379 v 1.399 l 0.269,1.363 0.528,1.289 0.777,1.156 0.992,0.989 1.157,0.781 1.289,0.539 1.363,0.269 h 1.41 l 1.367,-0.269 1.289,-0.539 1.157,-0.781 0.988,-0.989 0.781,-1.156 0.524,-1.289 0.269,-1.363 v -1.399 l -0.269,-1.379 -0.524,-1.289 -0.781,-1.156 -0.988,-0.988 -0.692,-0.449 v -8.25 l 0.016,-0.196 -0.016,-0.179 -0.058,-0.571 -0.211,-0.707 v -0.015 l -0.36,-0.661 -0.359,-0.433 -0.121,-0.149 -0.137,-0.121 -10.543,-10.531 -0.121,-0.148 -0.586,-0.481 -0.66,-0.359 -0.719,-0.211 -0.555,-0.059 -0.195,-0.015 -0.195,0.015 h -18.211 l -0.027,-0.031 -0.676,-0.434 h 30.027 v 1.395 l 0.274,1.363 0.523,1.289 0.781,1.157 0.989,0.992 1.156,0.777 1.289,0.539 1.363,0.274 h 1.41 l 1.367,-0.274 1.29,-0.539 1.156,-0.777 0.988,-0.992 0.781,-1.157 0.524,-1.289 0.269,-1.363 v -1.395 l -0.269,-1.382 -0.524,-1.289 -0.781,-1.157 -0.988,-0.988 -1.156,-0.766 -1.29,-0.539 -1.367,-0.269 h -1.41 l -1.363,0.269 -1.289,0.539 -1.156,0.766 -0.989,0.988 -0.781,1.157 -0.523,1.289 -0.274,1.382 h -30.027 l -0.137,-0.105 -0.914,-0.375 -0.945,-0.18 h -0.989 l -0.945,0.18 -0.918,0.375 -0.808,0.539 -0.692,0.691 -0.539,0.825 -0.375,0.898 -0.195,0.961 h -5.699 l -5.684,-5.684 -0.121,-0.152 -0.586,-0.48 -0.66,-0.36 -0.719,-0.211 -0.57,-0.058 -0.18,-0.016 -0.195,0.016 H 341.953 l -0.191,-0.016 -0.196,0.016 -0.554,0.058 -0.723,0.211 -0.312,0.164 -0.348,0.196 -0.449,0.363 -0.133,0.117 -0.121,0.152 -7.246,7.243 -0.149,0.121 -0.121,0.148 -0.359,0.438 -0.36,0.66 -0.211,0.719 -0.074,0.75 0.016,0.195 v 86.101 l -0.106,0.106 -0.66,-0.676 -0.84,-0.555 -0.929,-0.39 -0.992,-0.196 h -1.004 l -0.977,0.196 -0.93,0.39 -0.839,0.555 -0.704,0.703 -0.57,0.84 -0.375,0.93 -0.195,0.992 v 1.004 l 0.195,0.988 0.375,0.918 0.57,0.84 0.704,0.719 0.839,0.554 0.93,0.375 0.977,0.196 h 0.269 l -0.359,0.539 -0.391,0.929 -0.195,0.977 v 1.004 l 0.195,0.992 0.391,0.93 0.074,0.105 h -0.523 l -4.965,-4.953 v -29.234 l 2.351,-2.34 0.137,-0.117 0.121,-0.153 0.359,-0.433 0.36,-0.676 0.211,-0.719 0.058,-0.554 0.016,-0.196 -0.016,-0.179 v -14.028 l 0.016,-0.195 -0.016,-0.18 -0.058,-0.57 -0.211,-0.719 -0.36,-0.66 -0.48,-0.586 -0.137,-0.117 -6.941,-6.934 -0.121,-0.148 -0.586,-0.481 -0.66,-0.359 -0.719,-0.211 -0.555,-0.059 -0.195,-0.015 -0.195,0.015 h -1.036 l -0.464,-0.691 -0.993,-0.988 -1.152,-0.766 -1.293,-0.539 -1.363,-0.269 h -1.41 l -1.364,0.269 -1.293,0.539 -1.152,0.766 -0.992,0.988 -0.777,1.156 -0.528,1.289 -0.269,1.379 v 1.399 l 0.269,1.363 0.528,1.289 0.777,1.156 0.992,0.989 1.152,0.781 1.293,0.539 1.364,0.269 h 1.41 l 1.363,-0.269 1.293,-0.539 1.152,-0.781 0.993,-0.989 0.312,-0.48 4.758,4.754 v 11.234 l -2.356,2.344 -0.136,0.117 -0.117,0.152 -0.364,0.434 -0.359,0.66 -0.207,0.719 -0.078,0.75 0.015,0.195 v 23.055 l -0.629,-0.629 -1.394,-0.93 -1.547,-0.644 -1.648,-0.317 h -1.664 l -1.653,0.317 -1.543,0.644 -1.394,0.93 -1.188,1.184 -0.929,1.394 -0.645,1.547 -0.328,1.648 v 1.668 l 0.328,1.649 0.645,1.547 0.929,1.394 1.188,1.184 1.394,0.93 1.543,0.644 1.653,0.332 h 1.664 l 1.648,-0.332 1.547,-0.644 1.394,-0.93 1.184,-1.184 0.074,-0.105 0.364,0.433 0.117,0.153 0.136,0.117 6.946,6.93 0.121,0.152 0.582,0.465 0.332,0.179 h -21.813 l -4.964,-4.949 V 306.57 l 8.882,-8.879 h 5.938 l 0.57,-0.062 0.528,-0.164 0.492,-0.254 0.437,-0.359 0.344,-0.438 0.27,-0.492 0.164,-0.527 0.046,-0.555 v -8.504 l -0.046,-0.555 -0.164,-0.543 -0.27,-0.492 -0.344,-0.422 -0.437,-0.359 -0.492,-0.27 -0.528,-0.148 -0.57,-0.063 h -8.488 l -0.571,0.063 -0.523,0.148 -0.496,0.27 -0.438,0.359 -0.343,0.422 -0.27,0.492 -0.164,0.543 -0.047,0.555 v 5.937 l -9.883,9.872 -0.136,0.121 -0.122,0.148 -0.359,0.438 -0.359,0.66 -0.211,0.718 -0.074,0.75 0.015,0.196 v 35.625 l -0.015,0.179 0.015,0.196 0.059,0.554 0.211,0.719 0.359,0.676 0.359,0.434 0.122,0.152 0.136,0.117 1.231,1.219 -0.184,-0.078 -1.363,-0.27 h -1.41 l -1.364,0.27 -1.293,0.543 -1.152,0.761 -0.992,0.993 -0.777,1.156 -0.528,1.289 -0.269,1.379 h -0.809 V 228.691 h 0.809 v 1.395 l 0.269,1.363 0.528,1.289 0.777,1.157 0.992,0.992 1.152,0.777 1.293,0.539 1.364,0.274 h 1.41 l 1.363,-0.274 1.293,-0.539 1.152,-0.777 0.993,-0.992 0.781,-1.157 0.523,-1.289 0.27,-1.363 v -1.395 l -0.27,-1.382 -0.523,-1.289 -0.781,-1.157 -0.993,-0.988 -1.152,-0.766 -1.293,-0.539 -1.363,-0.269 h -1.41 l -1.364,0.269 -1.293,0.539 -1.152,0.766 -0.992,0.988 -0.777,1.157 -0.528,1.289 -0.269,1.382 h -0.809 v -7.203 h 282.18 v 138.196"
             style="fill:#000000;fill-opacity:1;fill-rule:nonzero;stroke:#000000;stroke-width:1.14;stroke-linecap:round;stroke-linejoin:round;stroke-miterlimit:10;stroke-dasharray:none;stroke-opacity:1"
             id="path258" /></g><g
           id="g260"><path
             d="m 504.148,243.586 -0.386,-0.047 -0.196,0.016 h -18.015 l -0.137,-0.133 -0.84,-0.559 -0.929,-0.386 -0.973,-0.196 h -1.024 l -0.972,0.196 -0.93,0.386 -0.84,0.559 -0.707,0.703 -0.554,0.84 -0.391,0.93 -0.195,0.992 v 1.004 l 0.195,0.988 0.391,0.918 0.554,0.84 0.137,0.133 v 0.406 l 0.059,0.554 0.21,0.719 0.36,0.676 0.48,0.586 0.586,0.465 0.66,0.359 0.719,0.227 0.75,0.074 0.75,-0.074 0.719,-0.227 0.66,-0.359 0.586,-0.465 0.48,-0.586 0.36,-0.676 0.211,-0.719 0.058,-0.527 h 12.735 l -0.297,0.094 -0.496,0.269 -0.438,0.36 -0.343,0.418 -0.27,0.496 -0.164,0.539 -0.047,0.555 v 8.507 l 0.047,0.555 0.164,0.524 0.27,0.496 0.343,0.433 0.438,0.36 0.496,0.257 0.523,0.164 0.571,0.059 h 0.418 V 276 l -0.012,0.18 0.012,0.195 0.062,0.555 0.207,0.718 0.168,0.317 0.195,0.359 0.36,0.438 0.121,0.148 0.133,0.121 16.547,16.528 -0.481,0.316 -0.992,0.988 -0.465,0.692 h -11.836 l -0.191,-0.016 -0.196,0.016 -0.554,0.058 -0.723,0.211 -0.238,0.137 -0.422,0.223 -0.449,0.363 -0.133,0.117 -0.121,0.152 -13.156,13.137 h -27.016 l -0.195,-0.012 -0.196,0.012 -0.554,0.063 -0.719,0.211 -0.66,0.359 -0.586,0.48 -0.117,0.149 -4.817,4.816 h -0.047 l -0.941,0.18 -0.918,0.375 -0.809,0.539 -0.691,0.691 -0.539,0.825 -0.375,0.898 -0.195,0.961 v 0.977 l 0.195,0.957 0.375,0.902 0.539,0.809 0.211,0.21 h -1.965 l -3.676,-3.66 v -1.98 l -0.058,-0.555 -0.153,-0.539 -0.269,-0.48 -0.36,-0.438 -0.058,-0.058 0.301,-0.45 0.386,-0.914 0.196,-0.992 v -1.004 l -0.196,-0.988 -0.386,-0.934 -0.555,-0.84 -0.121,-0.117 h 10.363 l 0.195,0.028 0.196,-0.028 0.554,-0.047 0.719,-0.222 0.66,-0.364 0.586,-0.464 0.121,-0.149 13.664,-13.664 v 0.793 l 0.196,0.992 0.39,0.914 0.555,0.84 0.703,0.719 0.844,0.555 0.93,0.375 0.972,0.195 h 1.02 l 0.976,-0.195 0.93,-0.375 0.84,-0.555 0.137,-0.149 h 2.757 l 0.016,0.032 0.359,0.433 0.422,0.344 0.492,0.27 0.543,0.168 0.555,0.043 h 4.527 l 0.555,-0.043 0.543,-0.168 0.492,-0.27 0.422,-0.344 0.36,-0.433 0.269,-0.496 0.152,-0.528 0.059,-0.566 v -4.531 l -0.059,-0.555 -0.152,-0.539 -0.269,-0.481 -0.36,-0.437 -0.422,-0.359 -0.492,-0.254 -0.543,-0.164 -0.555,-0.063 h -4.527 l -0.555,0.063 -0.543,0.164 -0.492,0.254 -0.422,0.359 -0.359,0.437 -0.016,0.012 h -2.757 l -0.137,-0.133 -0.84,-0.554 -0.93,-0.391 -0.976,-0.195 h -0.793 l 11.398,-11.399 h 0.196 l 0.976,-0.195 0.93,-0.375 0.84,-0.555 0.703,-0.722 0.554,-0.84 0.391,-0.914 0.195,-0.989 v -1.007 l -0.195,-0.989 -0.391,-0.929 -0.554,-0.84 -0.133,-0.137 v -0.016 l 0.016,-0.195 -0.016,-0.18 -0.063,-0.57 -0.207,-0.719 -0.363,-0.66 -0.359,-0.433 -0.117,-0.153 -0.137,-0.117 -24.945,-24.93 -0.122,-0.152 -0.582,-0.48 -0.66,-0.36 -0.722,-0.211 -0.555,-0.058 -0.195,-0.016 -0.196,0.016 h -3.613 l -0.137,-0.133 -0.84,-0.559 -0.929,-0.386 -0.973,-0.196 h -1.019 l -0.977,0.196 -0.93,0.386 -0.84,0.559 -0.136,0.133 H 432.84 l 0.074,-0.149 0.164,-0.543 0.063,-0.554 -0.016,-0.856 -0.719,-0.703 h -3.676 v 0.059 h -1.14 v -0.059 h -3.676 l -0.719,0.703 -0.015,0.856 0.058,0.554 0.168,0.543 0.254,0.492 0.36,0.422 0.136,0.121 -0.39,0.598 -0.375,0.902 -0.196,0.957 v 0.977 l 0.196,0.961 0.375,0.898 0.539,0.813 0.433,0.433 -0.433,0.434 -0.539,0.824 -0.375,0.903 -0.196,0.961 v 0.972 l 0.196,0.961 0.375,0.899 0.539,0.812 0.691,0.688 0.809,0.543 0.914,0.375 0.945,0.195 h 0.047 l 18.223,18.223 v 3.808 l -0.18,-0.328 -0.359,-0.434 -0.122,-0.152 -0.132,-0.117 -15.481,-15.469 v -0.191 l -0.195,-0.992 -0.391,-0.93 -0.554,-0.84 -0.704,-0.703 -0.839,-0.559 -0.93,-0.386 -0.977,-0.196 h -1.019 l -0.977,0.196 -0.929,0.386 -0.84,0.559 -0.703,0.703 -0.555,0.84 -0.391,0.93 -0.195,0.992 v 1.004 l 0.195,0.988 0.391,0.918 0.555,0.84 0.703,0.718 0.84,0.555 0.929,0.375 0.977,0.195 h 0.195 l 14.07,14.071 -0.078,0.121 -0.375,0.883 -0.179,0.945 v 0.961 l 0.179,0.945 0.375,0.883 0.543,0.797 0.672,0.687 0.797,0.528 0.887,0.375 0.941,0.179 h 0.961 l 0.945,-0.179 0.887,-0.375 0.793,-0.528 0.496,-0.492 0.496,0.492 0.793,0.528 0.887,0.375 0.945,0.179 h 0.957 l 0.946,-0.179 0.886,-0.375 0.793,-0.528 0.496,-0.492 0.496,0.492 0.793,0.528 0.887,0.375 0.945,0.179 h 0.961 l 0.946,-0.179 0.883,-0.375 0.796,-0.528 0.672,-0.687 0.543,-0.797 0.375,-0.883 0.164,-0.871 7.532,-7.531 h 0.957 l 0.015,0.031 0.36,0.434 0.421,0.347 0.497,0.27 0.539,0.164 0.554,0.047 h 2.535 l -23.46,23.457 h -8.985 l 0.031,-0.027 0.582,-0.829 0.407,-0.914 0.074,-0.254 -0.57,-0.781 h -3.778 v 0.063 h -1.14 v -0.063 h -3.782 l -0.57,0.781 0.074,0.254 0.407,0.914 0.585,0.829 0.254,0.238 -0.359,0.359 -0.555,0.84 -0.39,0.93 -0.196,0.992 v 1.004 l 0.196,0.988 0.39,0.918 0.555,0.84 0.344,0.344 -0.344,0.343 -0.555,0.84 -0.39,0.934 -0.196,0.988 v 1.004 l 0.196,0.992 0.39,0.914 0.301,0.45 -0.062,0.058 -0.36,0.438 -0.269,0.48 -0.149,0.539 -0.062,0.555 v 4.531 l 0.062,0.57 0.149,0.524 0.269,0.496 0.36,0.434 0.421,0.343 0.497,0.274 0.539,0.164 0.554,0.043 h 1.965 l 4.664,4.668 0.121,0.148 0.586,0.465 0.328,0.18 h -3.808 l -8.567,-8.551 v -16.231 l 0.016,-0.195 -0.016,-0.18 -0.058,-0.57 -0.211,-0.719 -0.36,-0.66 -0.48,-0.586 -0.137,-0.117 -5.715,-5.715 h 9.016 l 0.57,0.778 h 3.782 v -3.793 h 1.14 v 3.793 h 3.778 l 0.57,-0.778 -0.074,-0.258 -0.407,-0.914 -0.582,-0.808 -0.722,-0.692 -0.856,-0.539 -0.929,-0.359 -0.778,0.555 h -1.14 l -0.782,-0.555 -0.929,0.359 -0.856,0.539 -0.719,0.692 -0.585,0.808 -0.407,0.914 -0.074,0.258 h -9.016 l -1.226,-1.215 -0.121,-0.152 -0.586,-0.48 -0.66,-0.36 -0.719,-0.211 -0.555,-0.058 -0.195,-0.016 -0.195,0.016 h -0.016 l -0.137,-0.133 -0.84,-0.559 -0.929,-0.386 -0.973,-0.196 h -1.019 l -0.977,0.196 -0.93,0.386 -0.84,0.559 -0.707,0.703 -0.554,0.84 -0.391,0.93 -0.191,0.992 v 0.777 l -9.078,-9.059 v -6.121 h 5.476 v 1.004 l 0.195,0.992 0.391,0.915 0.555,0.839 0.703,0.719 0.84,0.559 0.929,0.375 0.977,0.191 h 1.02 l 0.976,-0.191 0.93,-0.375 0.84,-0.559 0.132,-0.148 h 2.762 l 0.016,0.031 0.359,0.434 0.418,0.343 0.496,0.274 0.539,0.164 0.559,0.043 h 4.527 l 0.555,-0.043 0.543,-0.164 0.492,-0.274 0.422,-0.343 0.359,-0.434 0.27,-0.496 0.148,-0.524 0.063,-0.57 v -4.531 l -0.063,-0.555 -0.148,-0.539 -0.27,-0.48 -0.359,-0.438 -0.422,-0.359 -0.492,-0.254 -0.543,-0.164 -0.555,-0.063 h -4.527 l -0.559,0.063 -0.539,0.164 -0.496,0.254 -0.418,0.359 -0.359,0.438 -0.016,0.015 h -2.762 l -0.132,-0.136 -0.84,-0.555 -0.93,-0.391 -0.976,-0.195 h -1.02 l -0.977,0.195 -0.929,0.391 -0.84,0.555 -0.703,0.707 -0.555,0.839 -0.391,0.93 -0.195,0.988 h -5.476 v -18.839 h 5.461 l 0.058,0.57 0.152,0.523 0.27,0.496 0.359,0.438 0.422,0.344 0.492,0.269 0.543,0.164 0.555,0.047 0.988,-0.016 0.707,-0.707 v -3.824 h 1.137 v 3.824 l 0.707,0.707 0.988,0.016 0.555,-0.047 0.543,-0.164 0.492,-0.269 0.422,-0.344 0.36,-0.438 0.269,-0.496 0.152,-0.523 0.059,-0.57 -0.016,-0.989 -0.703,-0.707 h -8.793 l -0.703,0.707 -0.015,0.989 h -5.461 v -4.532 h 5.461 l 0.015,0.992 0.703,0.704 h 3.828 v -3.825 h 1.137 v 3.825 h 3.828 l 0.703,-0.704 0.016,-0.992 -0.059,-0.554 -0.152,-0.539 -0.269,-0.481 -0.36,-0.434 -0.422,-0.359 -0.492,-0.258 -0.543,-0.164 -0.555,-0.058 -0.988,0.015 -0.707,0.703 h -1.137 l -0.707,-0.703 -0.988,-0.015 -0.555,0.058 -0.543,0.164 -0.492,0.258 -0.422,0.359 -0.359,0.434 -0.27,0.481 -0.152,0.539 -0.058,0.554 h -5.461 v -17.742 l 4.964,-4.965 h 6.016 l 0.031,0.028 0.809,0.543 0.918,0.375 0.941,0.195 h 0.992 l 0.946,-0.195 0.914,-0.375 0.808,-0.543 0.692,-0.688 0.539,-0.812 0.359,-0.868 h 1.067 l 0.015,0.84 0.719,0.703 h 3.676 v -3.675 h 1.14 v 3.675 h 3.676 l 0.719,-0.703 0.016,-0.84 -0.063,-0.554 -0.164,-0.543 -0.254,-0.492 -0.359,-0.438 -0.438,-0.344 -0.492,-0.269 -0.527,-0.164 -0.555,-0.047 -0.855,0.015 -0.704,0.704 h -1.14 l -0.703,-0.704 -0.856,-0.015 -0.554,0.047 -0.528,0.164 -0.496,0.269 -0.433,0.344 -0.36,0.438 -0.254,0.492 -0.168,0.543 -0.058,0.554 h -1.067 l 0.016,-0.031 0.195,-0.961 v -0.972 l -0.195,-0.961 -0.375,-0.903 -0.539,-0.824 -0.211,-0.211 h 72.781 l 10.363,10.383"
             style="fill:#000000;fill-opacity:1;fill-rule:nonzero;stroke:#000000;stroke-width:1.14;stroke-linecap:round;stroke-linejoin:round;stroke-miterlimit:10;stroke-dasharray:none;stroke-opacity:1"
             id="path262" /></g><g
           id="g264"><path
             d="m 438.961,322.98 v -7.199"
             style="fill:none;stroke:#000000;stroke-width:1.98;stroke-linecap:round;stroke-linejoin:round;stroke-miterlimit:10;stroke-dasharray:none;stroke-opacity:1"
             id="path266" /></g><g
           id="g268"><path
             d="M 478.559,337.379 467.762,326.578"
             style="fill:none;stroke:#000000;stroke-width:1.98;stroke-linecap:round;stroke-linejoin:round;stroke-miterlimit:10;stroke-dasharray:none;stroke-opacity:1"
             id="path270" /></g><g
           id="g272"><path
             d="m 456.961,326.578 -3.602,3.602"
             style="fill:none;stroke:#000000;stroke-width:1.98;stroke-linecap:round;stroke-linejoin:round;stroke-miterlimit:10;stroke-dasharray:none;stroke-opacity:1"
             id="path274" /></g><g
           id="g276"><path
             d="m 446.16,330.18 -7.199,-7.2"
             style="fill:none;stroke:#000000;stroke-width:1.98;stroke-linecap:round;stroke-linejoin:round;stroke-miterlimit:10;stroke-dasharray:none;stroke-opacity:1"
             id="path278" /></g><g
           id="g280"><path
             d="M 453.359,330.18 H 446.16"
             style="fill:none;stroke:#000000;stroke-width:1.98;stroke-linecap:round;stroke-linejoin:round;stroke-miterlimit:10;stroke-dasharray:none;stroke-opacity:1"
             id="path282" /></g><g
           id="g284"><path
             d="m 489.359,348.18 3.602,-3.602"
             style="fill:none;stroke:#000000;stroke-width:1.98;stroke-linecap:round;stroke-linejoin:round;stroke-miterlimit:10;stroke-dasharray:none;stroke-opacity:1"
             id="path286" /></g><g
           id="g288"><path
             d="m 449.762,348.18 h 39.597"
             style="fill:none;stroke:#000000;stroke-width:1.98;stroke-linecap:round;stroke-linejoin:round;stroke-miterlimit:10;stroke-dasharray:none;stroke-opacity:1"
             id="path290" /></g><g
           id="g292"><path
             d="m 413.762,286.98 h 10.797"
             style="fill:none;stroke:#000000;stroke-width:1.98;stroke-linecap:round;stroke-linejoin:round;stroke-miterlimit:10;stroke-dasharray:none;stroke-opacity:1"
             id="path294" /></g><g
           id="g296"><path
             d="m 438.961,294.18 -7.199,-7.2"
             style="fill:none;stroke:#000000;stroke-width:1.98;stroke-linecap:round;stroke-linejoin:round;stroke-miterlimit:10;stroke-dasharray:none;stroke-opacity:1"
             id="path298" /></g><g
           id="g300"><path
             d="m 431.762,286.98 v -3.601"
             style="fill:none;stroke:#000000;stroke-width:1.98;stroke-linecap:round;stroke-linejoin:round;stroke-miterlimit:10;stroke-dasharray:none;stroke-opacity:1"
             id="path302" /></g><g
           id="g304"><path
             d="M 431.762,283.379 420.961,272.578"
             style="fill:none;stroke:#000000;stroke-width:1.98;stroke-linecap:round;stroke-linejoin:round;stroke-miterlimit:10;stroke-dasharray:none;stroke-opacity:1"
             id="path306" /></g><g
           id="g308"><path
             d="M 449.762,348.18 H 429.961"
             style="fill:none;stroke:#000000;stroke-width:1.98;stroke-linecap:round;stroke-linejoin:round;stroke-miterlimit:10;stroke-dasharray:none;stroke-opacity:1"
             id="path310" /></g><g
           id="g312"><path
             d="M 429.961,348.18 H 428.16"
             style="fill:none;stroke:#000000;stroke-width:1.98;stroke-linecap:round;stroke-linejoin:round;stroke-miterlimit:10;stroke-dasharray:none;stroke-opacity:1"
             id="path314" /></g><g
           id="g316"><path
             d="M 431.762,340.98 H 428.16"
             style="fill:none;stroke:#000000;stroke-width:1.98;stroke-linecap:round;stroke-linejoin:round;stroke-miterlimit:10;stroke-dasharray:none;stroke-opacity:1"
             id="path318" /></g><g
           id="g320"><path
             d="m 428.16,340.98 -10.801,-10.8"
             style="fill:none;stroke:#000000;stroke-width:1.98;stroke-linecap:round;stroke-linejoin:round;stroke-miterlimit:10;stroke-dasharray:none;stroke-opacity:1"
             id="path322" /></g><g
           id="g324"><path
             d="m 410.16,322.98 h 7.199"
             style="fill:none;stroke:#000000;stroke-width:1.98;stroke-linecap:round;stroke-linejoin:round;stroke-miterlimit:10;stroke-dasharray:none;stroke-opacity:1"
             id="path326" /></g><g
           id="g328"><path
             d="M 384.961,322.98 V 265.379"
             style="fill:none;stroke:#000000;stroke-width:1.98;stroke-linecap:round;stroke-linejoin:round;stroke-miterlimit:10;stroke-dasharray:none;stroke-opacity:1"
             id="path330" /></g><g
           id="g332"><path
             d="m 384.961,265.379 v 0"
             style="fill:none;stroke:#000000;stroke-width:1.98;stroke-linecap:round;stroke-linejoin:round;stroke-miterlimit:10;stroke-dasharray:none;stroke-opacity:1"
             id="path334" /></g><g
           id="g336"><path
             d="m 406.559,265.379 h 7.203"
             style="fill:none;stroke:#000000;stroke-width:1.98;stroke-linecap:round;stroke-linejoin:round;stroke-miterlimit:10;stroke-dasharray:none;stroke-opacity:1"
             id="path338" /></g><g
           id="g340"><path
             d="M 399.359,243.781 V 294.18"
             style="fill:none;stroke:#000000;stroke-width:1.98;stroke-linecap:round;stroke-linejoin:round;stroke-miterlimit:10;stroke-dasharray:none;stroke-opacity:1"
             id="path342" /></g><g
           id="g344"><path
             d="m 399.359,294.18 14.403,14.398"
             style="fill:none;stroke:#000000;stroke-width:1.98;stroke-linecap:round;stroke-linejoin:round;stroke-miterlimit:10;stroke-dasharray:none;stroke-opacity:1"
             id="path346" /></g><g
           id="g348"><path
             d="m 406.559,315.781 v 3.598"
             style="fill:none;stroke:#000000;stroke-width:1.98;stroke-linecap:round;stroke-linejoin:round;stroke-miterlimit:10;stroke-dasharray:none;stroke-opacity:1"
             id="path350" /></g><g
           id="g352"><path
             d="m 406.559,319.379 3.601,3.601"
             style="fill:none;stroke:#000000;stroke-width:1.98;stroke-linecap:round;stroke-linejoin:round;stroke-miterlimit:10;stroke-dasharray:none;stroke-opacity:1"
             id="path354" /></g><g
           id="g356"><path
             d="M 429.961,348.18 H 390.988"
             style="fill:none;stroke:#000000;stroke-width:1.98;stroke-linecap:round;stroke-linejoin:round;stroke-miterlimit:10;stroke-dasharray:none;stroke-opacity:1"
             id="path358" /></g><g
           id="g360"><path
             d="M 390.988,348.18 377.43,334.637"
             style="fill:none;stroke:#000000;stroke-width:1.98;stroke-linecap:round;stroke-linejoin:round;stroke-miterlimit:10;stroke-dasharray:none;stroke-opacity:1"
             id="path362" /></g><g
           id="g364"><path
             d="m 377.43,330.512 3.929,-3.934"
             style="fill:none;stroke:#000000;stroke-width:1.98;stroke-linecap:round;stroke-linejoin:round;stroke-miterlimit:10;stroke-dasharray:none;stroke-opacity:1"
             id="path366" /></g><g
           id="g368"><path
             d="m 381.359,326.578 3.602,-3.598"
             style="fill:none;stroke:#000000;stroke-width:1.98;stroke-linecap:round;stroke-linejoin:round;stroke-miterlimit:10;stroke-dasharray:none;stroke-opacity:1"
             id="path370" /></g><g
           id="g372"><path
             d="m 518.16,252.164 v 6.016"
             style="fill:none;stroke:#000000;stroke-width:1.98;stroke-linecap:round;stroke-linejoin:round;stroke-miterlimit:10;stroke-dasharray:none;stroke-opacity:1"
             id="path374" /></g><g
           id="g376"><path
             d="m 495.375,229.379 22.785,22.785"
             style="fill:none;stroke:#000000;stroke-width:1.98;stroke-linecap:round;stroke-linejoin:round;stroke-miterlimit:10;stroke-dasharray:none;stroke-opacity:1"
             id="path378" /></g><g
           id="g380"><path
             d="m 514.559,232.98 v 0"
             style="fill:none;stroke:#000000;stroke-width:1.98;stroke-linecap:round;stroke-linejoin:round;stroke-miterlimit:10;stroke-dasharray:none;stroke-opacity:1"
             id="path382" /></g><g
           id="g384"><path
             d="m 482.16,247.379 h 21.602"
             style="fill:none;stroke:#000000;stroke-width:1.98;stroke-linecap:round;stroke-linejoin:round;stroke-miterlimit:10;stroke-dasharray:none;stroke-opacity:1"
             id="path386" /></g><g
           id="g388"><path
             d="m 503.762,276.18 v -18"
             style="fill:none;stroke:#000000;stroke-width:1.98;stroke-linecap:round;stroke-linejoin:round;stroke-miterlimit:10;stroke-dasharray:none;stroke-opacity:1"
             id="path390" /></g><g
           id="g392"><path
             d="M 503.762,258.18 V 247.379"
             style="fill:none;stroke:#000000;stroke-width:1.98;stroke-linecap:round;stroke-linejoin:round;stroke-miterlimit:10;stroke-dasharray:none;stroke-opacity:1"
             id="path394" /></g><g
           id="g396"><path
             d="M 467.762,326.578 H 456.961"
             style="fill:none;stroke:#000000;stroke-width:1.98;stroke-linecap:round;stroke-linejoin:round;stroke-miterlimit:10;stroke-dasharray:none;stroke-opacity:1"
             id="path398" /></g><g
           id="g400"><path
             d="m 474.961,297.781 h 10.801"
             style="fill:none;stroke:#000000;stroke-width:1.98;stroke-linecap:round;stroke-linejoin:round;stroke-miterlimit:10;stroke-dasharray:none;stroke-opacity:1"
             id="path402" /></g><g
           id="g404"><path
             d="M 438.961,301.379 V 294.18"
             style="fill:none;stroke:#000000;stroke-width:1.98;stroke-linecap:round;stroke-linejoin:round;stroke-miterlimit:10;stroke-dasharray:none;stroke-opacity:1"
             id="path406" /></g><g
           id="g408"><path
             d="m 460.559,315.781 h 28.8"
             style="fill:none;stroke:#000000;stroke-width:1.98;stroke-linecap:round;stroke-linejoin:round;stroke-miterlimit:10;stroke-dasharray:none;stroke-opacity:1"
             id="path410" /></g><g
           id="g412"><path
             d="M 521.762,315.781 532.559,304.98"
             style="fill:none;stroke:#000000;stroke-width:1.98;stroke-linecap:round;stroke-linejoin:round;stroke-miterlimit:10;stroke-dasharray:none;stroke-opacity:1"
             id="path414" /></g><g
           id="g416"><path
             d="m 500.16,337.379 21.602,-21.598"
             style="fill:none;stroke:#000000;stroke-width:1.98;stroke-linecap:round;stroke-linejoin:round;stroke-miterlimit:10;stroke-dasharray:none;stroke-opacity:1"
             id="path418" /></g><g
           id="g420"><path
             d="m 492.961,337.379 h 7.199"
             style="fill:none;stroke:#000000;stroke-width:1.98;stroke-linecap:round;stroke-linejoin:round;stroke-miterlimit:10;stroke-dasharray:none;stroke-opacity:1"
             id="path422" /></g><g
           id="g424"><path
             d="m 492.961,344.578 v -7.199"
             style="fill:none;stroke:#000000;stroke-width:1.98;stroke-linecap:round;stroke-linejoin:round;stroke-miterlimit:10;stroke-dasharray:none;stroke-opacity:1"
             id="path426" /></g><g
           id="g428"><path
             d="M 521.762,301.379 V 294.18"
             style="fill:none;stroke:#000000;stroke-width:1.98;stroke-linecap:round;stroke-linejoin:round;stroke-miterlimit:10;stroke-dasharray:none;stroke-opacity:1"
             id="path430" /></g><g
           id="g432"><path
             d="m 503.762,301.379 h 18"
             style="fill:none;stroke:#000000;stroke-width:1.98;stroke-linecap:round;stroke-linejoin:round;stroke-miterlimit:10;stroke-dasharray:none;stroke-opacity:1"
             id="path434" /></g><g
           id="g436"><path
             d="m 489.359,315.781 14.403,-14.402"
             style="fill:none;stroke:#000000;stroke-width:1.98;stroke-linecap:round;stroke-linejoin:round;stroke-miterlimit:10;stroke-dasharray:none;stroke-opacity:1"
             id="path438" /></g><g
           id="g440"><path
             d="m 532.559,304.98 v -46.8"
             style="fill:none;stroke:#000000;stroke-width:1.98;stroke-linecap:round;stroke-linejoin:round;stroke-miterlimit:10;stroke-dasharray:none;stroke-opacity:1"
             id="path442" /></g><g
           id="g444"><path
             d="M 546.961,258.18 V 243.781"
             style="fill:none;stroke:#000000;stroke-width:1.98;stroke-linecap:round;stroke-linejoin:round;stroke-miterlimit:10;stroke-dasharray:none;stroke-opacity:1"
             id="path446" /></g><g
           id="g448"><path
             d="M 546.961,243.781 536.16,232.98"
             style="fill:none;stroke:#000000;stroke-width:1.98;stroke-linecap:round;stroke-linejoin:round;stroke-miterlimit:10;stroke-dasharray:none;stroke-opacity:1"
             id="path450" /></g><g
           id="g452"><path
             d="M 536.16,232.98 H 514.559"
             style="fill:none;stroke:#000000;stroke-width:1.98;stroke-linecap:round;stroke-linejoin:round;stroke-miterlimit:10;stroke-dasharray:none;stroke-opacity:1"
             id="path454" /></g><g
           id="g456"><path
             d="m 521.762,294.18 -18,-18"
             style="fill:none;stroke:#000000;stroke-width:1.98;stroke-linecap:round;stroke-linejoin:round;stroke-miterlimit:10;stroke-dasharray:none;stroke-opacity:1"
             id="path458" /></g><g
           id="g460"><path
             d="m 564.961,362.578 v -144"
             style="fill:none;stroke:#000000;stroke-width:0.135;stroke-linecap:round;stroke-linejoin:round;stroke-miterlimit:10;stroke-dasharray:none;stroke-opacity:1"
             id="path462" /></g><g
           id="g464"><path
             d="m 276.961,362.578 h 288"
             style="fill:none;stroke:#000000;stroke-width:0.135;stroke-linecap:round;stroke-linejoin:round;stroke-miterlimit:10;stroke-dasharray:none;stroke-opacity:1"
             id="path466" /></g><g
           id="g468"><path
             d="m 276.961,218.578 v 144"
             style="fill:none;stroke:#000000;stroke-width:0.135;stroke-linecap:round;stroke-linejoin:round;stroke-miterlimit:10;stroke-dasharray:none;stroke-opacity:1"
             id="path470" /></g><g
           id="g472"><path
             d="m 564.961,218.578 h -288"
             style="fill:none;stroke:#000000;stroke-width:0.135;stroke-linecap:round;stroke-linejoin:round;stroke-miterlimit:10;stroke-dasharray:none;stroke-opacity:1"
             id="path474" /></g><path
           d="m 558.414,229.379 c 0,2.351 -1.906,4.254 -4.254,4.254 -2.348,0 -4.254,-1.903 -4.254,-4.254 0,-2.348 1.906,-4.25 4.254,-4.25 2.348,0 4.254,1.902 4.254,4.25 z"
           style="fill:#000000;fill-opacity:1;fill-rule:nonzero;stroke:none"
           id="path476" /><path
           d="m 551.211,258.18 c 0,2.347 -1.902,4.254 -4.25,4.254 -2.348,0 -4.254,-1.907 -4.254,-4.254 0,-2.348 1.906,-4.254 4.254,-4.254 2.348,0 4.25,1.906 4.25,4.254 z"
           style="fill:#000000;fill-opacity:1;fill-rule:nonzero;stroke:none"
           id="path478" /><path
           d="m 499.516,253.934 h 8.488 v 8.508 h -8.488 z"
           style="fill:#000000;fill-opacity:1;fill-rule:nonzero;stroke:none"
           id="path480" /><path
           d="m 536.812,258.18 c 0,2.347 -1.902,4.254 -4.253,4.254 -2.348,0 -4.25,-1.907 -4.25,-4.254 0,-2.348 1.902,-4.254 4.25,-4.254 2.351,0 4.253,1.906 4.253,4.254 z"
           style="fill:#000000;fill-opacity:1;fill-rule:nonzero;stroke:none"
           id="path482" /><path
           d="m 522.414,258.18 c 0,2.347 -1.906,4.254 -4.254,4.254 -2.348,0 -4.254,-1.907 -4.254,-4.254 0,-2.348 1.906,-4.254 4.254,-4.254 2.348,0 4.254,1.906 4.254,4.254 z"
           style="fill:#000000;fill-opacity:1;fill-rule:nonzero;stroke:none"
           id="path484" /><path
           d="m 558.414,351.781 c 0,2.348 -1.906,4.25 -4.254,4.25 -2.348,0 -4.254,-1.902 -4.254,-4.25 0,-2.351 1.906,-4.254 4.254,-4.254 2.348,0 4.254,1.903 4.254,4.254 z"
           style="fill:#000000;fill-opacity:1;fill-rule:nonzero;stroke:none"
           id="path486" /><path
           d="m 497.211,337.379 c 0,2.351 -1.902,4.254 -4.25,4.254 -2.348,0 -4.254,-1.903 -4.254,-4.254 0,-2.348 1.906,-4.25 4.254,-4.25 2.348,0 4.25,1.902 4.25,4.25 z"
           style="fill:#000000;fill-opacity:1;fill-rule:nonzero;stroke:none"
           id="path488" /><path
           d="m 526.012,301.379 c 0,2.351 -1.903,4.254 -4.25,4.254 -2.352,0 -4.254,-1.903 -4.254,-4.254 0,-2.348 1.902,-4.25 4.254,-4.25 2.347,0 4.25,1.902 4.25,4.25 z"
           style="fill:#000000;fill-opacity:1;fill-rule:nonzero;stroke:none"
           id="path490" /><path
           d="m 517.516,311.535 h 8.488 v 8.504 h -8.488 z"
           style="fill:#000000;fill-opacity:1;fill-rule:nonzero;stroke:none"
           id="path492" /><path
           d="m 459.008,286.98 c 0,1.129 -0.918,2.047 -2.047,2.047 -1.133,0 -2.047,-0.918 -2.047,-2.047 0,-1.132 0.914,-2.046 2.047,-2.046 1.129,0 2.047,0.914 2.047,2.046 z"
           style="fill:#000000;fill-opacity:1;fill-rule:nonzero;stroke:none"
           id="path494" /><path
           d="m 474.961,297.781 v -2.269 c 1.25,0 2.266,1.015 2.266,2.269 0,1.25 -1.016,2.266 -2.266,2.266 z"
           style="fill:#000000;fill-opacity:1;fill-rule:nonzero;stroke:none"
           id="path496" /><path
           d="m 474.961,297.781 v 2.266 c -1.254,0 -2.27,-1.016 -2.27,-2.266 0,-1.254 1.016,-2.269 2.27,-2.269 z"
           style="fill:#000000;fill-opacity:1;fill-rule:nonzero;stroke:none"
           id="path498" /><path
           d="m 472.695,273.914 h 4.531 v 4.531 h -4.531 z"
           style="fill:#000000;fill-opacity:1;fill-rule:nonzero;stroke:none"
           id="path500" /><path
           d="m 485.762,276.18 v 2.269 c -1.254,0 -2.27,-1.015 -2.27,-2.269 0,-1.254 1.016,-2.266 2.27,-2.266 z"
           style="fill:#000000;fill-opacity:1;fill-rule:nonzero;stroke:none"
           id="path502" /><path
           d="m 485.762,276.18 v -2.266 c 1.25,0 2.265,1.012 2.265,2.266 0,1.254 -1.015,2.269 -2.265,2.269 z"
           style="fill:#000000;fill-opacity:1;fill-rule:nonzero;stroke:none"
           id="path504" /><path
           d="m 483.496,295.516 h 4.527 v 4.531 h -4.527 z"
           style="fill:#000000;fill-opacity:1;fill-rule:nonzero;stroke:none"
           id="path506" /><path
           d="m 426.031,238.066 h 4.258 v 4.242 h -4.258 z"
           style="fill:#000000;fill-opacity:1;fill-rule:nonzero;stroke:none"
           id="path508" /><path
           d="m 430.297,247.379 c 0,1.18 -0.957,2.137 -2.137,2.137 -1.18,0 -2.137,-0.957 -2.137,-2.137 0,-1.18 0.957,-2.137 2.137,-2.137 1.18,0 2.137,0.957 2.137,2.137 z"
           style="fill:#000000;fill-opacity:1;fill-rule:nonzero;stroke:none"
           id="path510" /><path
           d="m 453.359,247.379 h 2.27 c 0,1.254 -1.016,2.269 -2.27,2.269 -1.25,0 -2.265,-1.015 -2.265,-2.269 z"
           style="fill:#000000;fill-opacity:1;fill-rule:nonzero;stroke:none"
           id="path512" /><path
           d="m 453.359,247.379 h -2.265 c 0,-1.25 1.015,-2.266 2.265,-2.266 1.254,0 2.27,1.016 2.27,2.266 z"
           style="fill:#000000;fill-opacity:1;fill-rule:nonzero;stroke:none"
           id="path514" /><path
           d="m 484.434,247.379 c 0,1.258 -1.02,2.273 -2.274,2.273 -1.254,0 -2.273,-1.015 -2.273,-2.273 0,-1.254 1.019,-2.27 2.273,-2.27 1.254,0 2.274,1.016 2.274,2.27 z"
           style="fill:#000000;fill-opacity:1;fill-rule:nonzero;stroke:none"
           id="path516" /><path
           d="m 444.609,286.98 c 0,1.129 -0.918,2.047 -2.05,2.047 -1.129,0 -2.047,-0.918 -2.047,-2.047 0,-1.132 0.918,-2.046 2.047,-2.046 1.132,0 2.05,0.914 2.05,2.046 z"
           style="fill:#000000;fill-opacity:1;fill-rule:nonzero;stroke:none"
           id="path518" /><path
           d="m 430.297,254.578 c 0,1.184 -0.957,2.141 -2.137,2.141 -1.18,0 -2.137,-0.957 -2.137,-2.141 0,-1.18 0.957,-2.137 2.137,-2.137 1.18,0 2.137,0.957 2.137,2.137 z"
           style="fill:#000000;fill-opacity:1;fill-rule:nonzero;stroke:none"
           id="path520" /><path
           d="m 413.762,286.98 v -2.269 c 1.25,0 2.265,1.016 2.265,2.269 0,1.254 -1.015,2.266 -2.265,2.266 z"
           style="fill:#000000;fill-opacity:1;fill-rule:nonzero;stroke:none"
           id="path522" /><path
           d="m 413.762,286.98 v 2.266 c -1.254,0 -2.27,-1.012 -2.27,-2.266 0,-1.253 1.016,-2.269 2.27,-2.269 z"
           style="fill:#000000;fill-opacity:1;fill-rule:nonzero;stroke:none"
           id="path524" /><path
           d="m 411.496,263.113 h 4.527 v 4.531 h -4.527 z"
           style="fill:#000000;fill-opacity:1;fill-rule:nonzero;stroke:none"
           id="path526" /><path
           d="m 424.559,265.379 v 2.269 c -1.25,0 -2.266,-1.015 -2.266,-2.269 0,-1.25 1.016,-2.266 2.266,-2.266 z"
           style="fill:#000000;fill-opacity:1;fill-rule:nonzero;stroke:none"
           id="path528" /><path
           d="m 424.559,265.379 v -2.266 c 1.253,0 2.269,1.016 2.269,2.266 0,1.254 -1.016,2.269 -2.269,2.269 z"
           style="fill:#000000;fill-opacity:1;fill-rule:nonzero;stroke:none"
           id="path530" /><path
           d="m 422.297,284.715 h 4.527 v 4.531 h -4.527 z"
           style="fill:#000000;fill-opacity:1;fill-rule:nonzero;stroke:none"
           id="path532" /><path
           d="m 482.812,337.379 c 0,2.351 -1.902,4.254 -4.253,4.254 -2.348,0 -4.25,-1.903 -4.25,-4.254 0,-2.348 1.902,-4.25 4.25,-4.25 2.351,0 4.253,1.902 4.253,4.25 z"
           style="fill:#000000;fill-opacity:1;fill-rule:nonzero;stroke:none"
           id="path534" /><path
           d="m 459.914,333.137 h 8.492 v 8.504 h -8.492 z"
           style="fill:#000000;fill-opacity:1;fill-rule:nonzero;stroke:none"
           id="path536" /><path
           d="m 451.809,286.98 c 0,1.129 -0.918,2.047 -2.047,2.047 -1.133,0 -2.051,-0.918 -2.051,-2.047 0,-1.132 0.918,-2.046 2.051,-2.046 1.129,0 2.047,0.914 2.047,2.046 z"
           style="fill:#000000;fill-opacity:1;fill-rule:nonzero;stroke:none"
           id="path538" /><path
           d="m 438.961,315.781 h 2.266 c 0,1.25 -1.016,2.266 -2.266,2.266 -1.254,0 -2.27,-1.016 -2.27,-2.266 z"
           style="fill:#000000;fill-opacity:1;fill-rule:nonzero;stroke:none"
           id="path540" /><path
           d="m 438.961,315.781 h -2.27 c 0,-1.254 1.016,-2.269 2.27,-2.269 1.25,0 2.266,1.015 2.266,2.269 z"
           style="fill:#000000;fill-opacity:1;fill-rule:nonzero;stroke:none"
           id="path542" /><path
           d="m 417.359,322.98 h 2.27 c 0,1.254 -1.016,2.266 -2.27,2.266 -1.25,0 -2.265,-1.012 -2.265,-2.266 z"
           style="fill:#000000;fill-opacity:1;fill-rule:nonzero;stroke:none"
           id="path544" /><path
           d="m 417.359,322.98 h -2.265 c 0,-1.253 1.015,-2.269 2.265,-2.269 1.254,0 2.27,1.016 2.27,2.269 z"
           style="fill:#000000;fill-opacity:1;fill-rule:nonzero;stroke:none"
           id="path546" /><path
           d="m 438.961,301.379 h 2.266 c 0,1.254 -1.016,2.269 -2.266,2.269 -1.254,0 -2.27,-1.015 -2.27,-2.269 z"
           style="fill:#000000;fill-opacity:1;fill-rule:nonzero;stroke:none"
           id="path548" /><path
           d="m 438.961,301.379 h -2.27 c 0,-1.25 1.016,-2.266 2.27,-2.266 1.25,0 2.266,1.016 2.266,2.266 z"
           style="fill:#000000;fill-opacity:1;fill-rule:nonzero;stroke:none"
           id="path550" /><path
           d="m 417.359,315.781 h 2.27 c 0,1.25 -1.016,2.266 -2.27,2.266 -1.25,0 -2.265,-1.016 -2.265,-2.266 z"
           style="fill:#000000;fill-opacity:1;fill-rule:nonzero;stroke:none"
           id="path552" /><path
           d="m 417.359,315.781 h -2.265 c 0,-1.254 1.015,-2.269 2.265,-2.269 1.254,0 2.27,1.015 2.27,2.269 z"
           style="fill:#000000;fill-opacity:1;fill-rule:nonzero;stroke:none"
           id="path554" /><path
           d="m 438.961,308.578 h 2.266 c 0,1.254 -1.016,2.27 -2.266,2.27 -1.254,0 -2.27,-1.016 -2.27,-2.27 z"
           style="fill:#000000;fill-opacity:1;fill-rule:nonzero;stroke:none"
           id="path556" /><path
           d="m 438.961,308.578 h -2.27 c 0,-1.25 1.016,-2.266 2.27,-2.266 1.25,0 2.266,1.016 2.266,2.266 z"
           style="fill:#000000;fill-opacity:1;fill-rule:nonzero;stroke:none"
           id="path558" /><path
           d="m 417.359,308.578 h 2.27 c 0,1.254 -1.016,2.27 -2.27,2.27 -1.25,0 -2.265,-1.016 -2.265,-2.27 z"
           style="fill:#000000;fill-opacity:1;fill-rule:nonzero;stroke:none"
           id="path560" /><path
           d="m 417.359,308.578 h -2.265 c 0,-1.25 1.015,-2.266 2.265,-2.266 1.254,0 2.27,1.016 2.27,2.266 z"
           style="fill:#000000;fill-opacity:1;fill-rule:nonzero;stroke:none"
           id="path562" /><path
           d="m 417.359,301.379 h 2.27 c 0,1.254 -1.016,2.269 -2.27,2.269 -1.25,0 -2.265,-1.015 -2.265,-2.269 z"
           style="fill:#000000;fill-opacity:1;fill-rule:nonzero;stroke:none"
           id="path564" /><path
           d="m 417.359,301.379 h -2.265 c 0,-1.25 1.015,-2.266 2.265,-2.266 1.254,0 2.27,1.016 2.27,2.266 z"
           style="fill:#000000;fill-opacity:1;fill-rule:nonzero;stroke:none"
           id="path566" /><path
           d="m 436.695,320.715 h 4.531 v 4.531 h -4.531 z"
           style="fill:#000000;fill-opacity:1;fill-rule:nonzero;stroke:none"
           id="path568" /><path
           d="m 292.012,351.781 c 0,2.348 -1.903,4.25 -4.25,4.25 -2.352,0 -4.254,-1.902 -4.254,-4.25 0,-2.351 1.902,-4.254 4.254,-4.254 2.347,0 4.25,1.903 4.25,4.254 z"
           style="fill:#000000;fill-opacity:1;fill-rule:nonzero;stroke:none"
           id="path570" /><path
           d="m 292.012,229.379 c 0,2.351 -1.903,4.254 -4.25,4.254 -2.352,0 -4.254,-1.903 -4.254,-4.254 0,-2.348 1.902,-4.25 4.254,-4.25 2.347,0 4.25,1.902 4.25,4.25 z"
           style="fill:#000000;fill-opacity:1;fill-rule:nonzero;stroke:none"
           id="path572" /><path
           d="m 310.012,276.18 c 0,2.347 -1.903,4.254 -4.25,4.254 -2.352,0 -4.254,-1.907 -4.254,-4.254 0,-2.348 1.902,-4.254 4.254,-4.254 2.347,0 4.25,1.906 4.25,4.254 z"
           style="fill:#000000;fill-opacity:1;fill-rule:nonzero;stroke:none"
           id="path574" /><path
           d="m 301.516,286.336 h 8.488 v 8.504 h -8.488 z"
           style="fill:#000000;fill-opacity:1;fill-rule:nonzero;stroke:none"
           id="path576" /><path
           d="m 356.812,240.18 c 0,2.347 -1.902,4.254 -4.253,4.254 -2.348,0 -4.25,-1.907 -4.25,-4.254 0,-2.348 1.902,-4.254 4.25,-4.254 2.351,0 4.253,1.906 4.253,4.254 z"
           style="fill:#000000;fill-opacity:1;fill-rule:nonzero;stroke:none"
           id="path578" /><path
           d="m 371.211,240.18 c 0,2.347 -1.902,4.254 -4.25,4.254 -2.348,0 -4.254,-1.907 -4.254,-4.254 0,-2.348 1.906,-4.254 4.254,-4.254 2.348,0 4.25,1.906 4.25,4.254 z"
           style="fill:#000000;fill-opacity:1;fill-rule:nonzero;stroke:none"
           id="path580" /><path
           d="m 377.113,235.934 h 8.492 v 8.508 h -8.492 z"
           style="fill:#000000;fill-opacity:1;fill-rule:nonzero;stroke:none"
           id="path582" /><path
           d="m 406.746,330.613 c 0,2.032 -1.082,3.907 -2.836,4.918 -1.758,1.016 -3.922,1.016 -5.68,0 -1.753,-1.011 -2.839,-2.886 -2.839,-4.918 0,-2.027 1.086,-3.902 2.839,-4.914 1.758,-1.015 3.922,-1.015 5.68,0 1.754,1.012 2.836,2.887 2.836,4.914 z"
           style="fill:#000000;fill-opacity:1;fill-rule:nonzero;stroke:none"
           id="path584" /><path
           d="m 379.703,334.637 c 0,1.254 -1.019,2.269 -2.273,2.269 -1.254,0 -2.274,-1.015 -2.274,-2.269 0,-1.258 1.02,-2.274 2.274,-2.274 1.254,0 2.273,1.016 2.273,2.274 z"
           style="fill:#000000;fill-opacity:1;fill-rule:nonzero;stroke:none"
           id="path586" /><path
           d="m 375.789,326.578 c 0,1.258 -1.019,2.274 -2.273,2.274 -1.254,0 -2.274,-1.016 -2.274,-2.274 0,-1.254 1.02,-2.269 2.274,-2.269 1.254,0 2.273,1.015 2.273,2.269 z"
           style="fill:#000000;fill-opacity:1;fill-rule:nonzero;stroke:none"
           id="path588" /><path
           d="m 379.094,324.316 h 4.531 v 4.527 h -4.531 z"
           style="fill:#000000;fill-opacity:1;fill-rule:nonzero;stroke:none"
           id="path590" /><path
           d="m 312.352,330.613 c 0,2.032 -1.082,3.907 -2.836,4.918 -1.758,1.016 -3.922,1.016 -5.68,0 -1.758,-1.011 -2.84,-2.886 -2.84,-4.918 0,-2.027 1.082,-3.902 2.84,-4.914 1.758,-1.015 3.922,-1.015 5.68,0 1.754,1.012 2.836,2.887 2.836,4.914 z"
           style="fill:#000000;fill-opacity:1;fill-rule:nonzero;stroke:none"
           id="path592" /><path
           d="m 332.586,334.637 c 0,1.254 -1.016,2.269 -2.27,2.269 -1.257,0 -2.273,-1.015 -2.273,-2.269 0,-1.258 1.016,-2.274 2.273,-2.274 1.254,0 2.27,1.016 2.27,2.274 z"
           style="fill:#000000;fill-opacity:1;fill-rule:nonzero;stroke:none"
           id="path594" /><path
           d="m 340.449,334.637 c 0,1.254 -1.019,2.269 -2.273,2.269 -1.254,0 -2.274,-1.015 -2.274,-2.269 0,-1.258 1.02,-2.274 2.274,-2.274 1.254,0 2.273,1.016 2.273,2.274 z"
           style="fill:#000000;fill-opacity:1;fill-rule:nonzero;stroke:none"
           id="path596" /><path
           d="m 348.293,334.637 c 0,1.254 -1.02,2.269 -2.273,2.269 -1.254,0 -2.274,-1.015 -2.274,-2.269 0,-1.258 1.02,-2.274 2.274,-2.274 1.253,0 2.273,1.016 2.273,2.274 z"
           style="fill:#000000;fill-opacity:1;fill-rule:nonzero;stroke:none"
           id="path598" /><path
           d="m 328.672,326.578 c 0,1.258 -1.016,2.274 -2.274,2.274 -1.253,0 -2.269,-1.016 -2.269,-2.274 0,-1.254 1.016,-2.269 2.269,-2.269 1.258,0 2.274,1.015 2.274,2.269 z"
           style="fill:#000000;fill-opacity:1;fill-rule:nonzero;stroke:none"
           id="path600" /><path
           d="m 336.516,326.578 c 0,1.258 -1.016,2.274 -2.27,2.274 -1.258,0 -2.273,-1.016 -2.273,-2.274 0,-1.254 1.015,-2.269 2.273,-2.269 1.254,0 2.27,1.015 2.27,2.269 z"
           style="fill:#000000;fill-opacity:1;fill-rule:nonzero;stroke:none"
           id="path602" /><path
           d="m 344.379,326.578 c 0,1.258 -1.02,2.274 -2.274,2.274 -1.253,0 -2.273,-1.016 -2.273,-2.274 0,-1.254 1.02,-2.269 2.273,-2.269 1.254,0 2.274,1.015 2.274,2.269 z"
           style="fill:#000000;fill-opacity:1;fill-rule:nonzero;stroke:none"
           id="path604" /><path
           d="m 352.223,326.578 c 0,1.258 -1.02,2.274 -2.274,2.274 -1.254,0 -2.273,-1.016 -2.273,-2.274 0,-1.254 1.019,-2.269 2.273,-2.269 1.254,0 2.274,1.015 2.274,2.269 z"
           style="fill:#000000;fill-opacity:1;fill-rule:nonzero;stroke:none"
           id="path606" /><path
           d="m 356.152,334.637 c 0,1.254 -1.015,2.269 -2.273,2.269 -1.254,0 -2.27,-1.015 -2.27,-2.269 0,-1.258 1.016,-2.274 2.27,-2.274 1.258,0 2.273,1.016 2.273,2.274 z"
           style="fill:#000000;fill-opacity:1;fill-rule:nonzero;stroke:none"
           id="path608" /><path
           d="m 363.996,334.637 c 0,1.254 -1.016,2.269 -2.269,2.269 -1.258,0 -2.274,-1.015 -2.274,-2.269 0,-1.258 1.016,-2.274 2.274,-2.274 1.253,0 2.269,1.016 2.269,2.274 z"
           style="fill:#000000;fill-opacity:1;fill-rule:nonzero;stroke:none"
           id="path610" /><path
           d="m 371.859,334.637 c 0,1.254 -1.019,2.269 -2.273,2.269 -1.258,0 -2.274,-1.015 -2.274,-2.269 0,-1.258 1.016,-2.274 2.274,-2.274 1.254,0 2.273,1.016 2.273,2.274 z"
           style="fill:#000000;fill-opacity:1;fill-rule:nonzero;stroke:none"
           id="path612" /><path
           d="m 360.082,326.578 c 0,1.258 -1.016,2.274 -2.273,2.274 -1.254,0 -2.27,-1.016 -2.27,-2.274 0,-1.254 1.016,-2.269 2.27,-2.269 1.257,0 2.273,1.015 2.273,2.269 z"
           style="fill:#000000;fill-opacity:1;fill-rule:nonzero;stroke:none"
           id="path614" /><path
           d="m 367.926,326.578 c 0,1.258 -1.016,2.274 -2.27,2.274 -1.258,0 -2.273,-1.016 -2.273,-2.274 0,-1.254 1.015,-2.269 2.273,-2.269 1.254,0 2.27,1.015 2.27,2.269 z"
           style="fill:#000000;fill-opacity:1;fill-rule:nonzero;stroke:none"
           id="path616" /><path
           d="m 387.098,265.379 c 0,1.18 -0.957,2.137 -2.137,2.137 -1.18,0 -2.137,-0.957 -2.137,-2.137 0,-1.18 0.957,-2.137 2.137,-2.137 1.18,0 2.137,0.957 2.137,2.137 z"
           style="fill:#000000;fill-opacity:1;fill-rule:nonzero;stroke:none"
           id="path618" /><path
           d="m 408.699,265.379 c 0,1.18 -0.957,2.137 -2.14,2.137 -1.18,0 -2.137,-0.957 -2.137,-2.137 0,-1.18 0.957,-2.137 2.137,-2.137 1.183,0 2.14,0.957 2.14,2.137 z"
           style="fill:#000000;fill-opacity:1;fill-rule:nonzero;stroke:none"
           id="path620" /><path
           d="m 516.699,232.98 c 0,1.18 -0.957,2.137 -2.14,2.137 -1.18,0 -2.137,-0.957 -2.137,-2.137 0,-1.179 0.957,-2.136 2.137,-2.136 1.183,0 2.14,0.957 2.14,2.136 z"
           style="fill:#000000;fill-opacity:1;fill-rule:nonzero;stroke:none"
           id="path622" /><path
           d="m 419.496,236.578 c 0,1.184 -0.957,2.141 -2.137,2.141 -1.179,0 -2.136,-0.957 -2.136,-2.141 0,-1.18 0.957,-2.137 2.136,-2.137 1.18,0 2.137,0.957 2.137,2.137 z"
           style="fill:#000000;fill-opacity:1;fill-rule:nonzero;stroke:none"
           id="path624" /><path
           d="m 433.898,340.98 c 0,1.18 -0.957,2.137 -2.136,2.137 -1.184,0 -2.141,-0.957 -2.141,-2.137 0,-1.179 0.957,-2.136 2.141,-2.136 1.179,0 2.136,0.957 2.136,2.136 z"
           style="fill:#000000;fill-opacity:1;fill-rule:nonzero;stroke:none"
           id="path626" /><path
           d="m 455.496,322.98 c 0,1.18 -0.957,2.137 -2.137,2.137 -1.179,0 -2.136,-0.957 -2.136,-2.137 0,-1.179 0.957,-2.136 2.136,-2.136 1.18,0 2.137,0.957 2.137,2.136 z"
           style="fill:#000000;fill-opacity:1;fill-rule:nonzero;stroke:none"
           id="path628" /><path
           d="m 346.508,315.781 c 0,0.633 -0.516,1.145 -1.149,1.145 -0.632,0 -1.148,-0.512 -1.148,-1.145 0,-0.636 0.516,-1.148 1.148,-1.148 0.633,0 1.149,0.512 1.149,1.148 z"
           style="fill:#000000;fill-opacity:1;fill-rule:nonzero;stroke:none"
           id="path630" /><path
           d="m 407.707,315.781 c 0,0.633 -0.512,1.145 -1.148,1.145 -0.633,0 -1.145,-0.512 -1.145,-1.145 0,-0.636 0.512,-1.148 1.145,-1.148 0.636,0 1.148,0.512 1.148,1.148 z"
           style="fill:#000000;fill-opacity:1;fill-rule:nonzero;stroke:none"
           id="path632" /><path
           d="m 554.586,351.781 c 0,0.235 -0.191,0.426 -0.426,0.426 -0.234,0 -0.426,-0.191 -0.426,-0.426 0,-0.238 0.192,-0.429 0.426,-0.429 0.235,0 0.426,0.191 0.426,0.429 z"
           style="fill:#ffffff;fill-opacity:1;fill-rule:nonzero;stroke:none"
           id="path634" /><path
           d="m 288.188,351.781 c 0,0.235 -0.192,0.426 -0.426,0.426 -0.239,0 -0.43,-0.191 -0.43,-0.426 0,-0.238 0.191,-0.429 0.43,-0.429 0.234,0 0.426,0.191 0.426,0.429 z"
           style="fill:#ffffff;fill-opacity:1;fill-rule:nonzero;stroke:none"
           id="path636" /><path
           d="m 288.188,229.379 c 0,0.238 -0.192,0.43 -0.426,0.43 -0.239,0 -0.43,-0.192 -0.43,-0.43 0,-0.234 0.191,-0.426 0.43,-0.426 0.234,0 0.426,0.192 0.426,0.426 z"
           style="fill:#ffffff;fill-opacity:1;fill-rule:nonzero;stroke:none"
           id="path638" /><path
           d="m 554.586,229.379 c 0,0.238 -0.191,0.43 -0.426,0.43 -0.234,0 -0.426,-0.192 -0.426,-0.43 0,-0.234 0.192,-0.426 0.426,-0.426 0.235,0 0.426,0.192 0.426,0.426 z"
           style="fill:#ffffff;fill-opacity:1;fill-rule:nonzero;stroke:none"
           id="path640" /><path
           d="m 401.496,330.613 c 0,0.239 -0.191,0.43 -0.426,0.43 -0.238,0 -0.429,-0.191 -0.429,-0.43 0,-0.234 0.191,-0.425 0.429,-0.425 0.235,0 0.426,0.191 0.426,0.425 z"
           style="fill:#ffffff;fill-opacity:1;fill-rule:nonzero;stroke:none"
           id="path642" /><path
           d="m 377.859,334.637 c 0,0.234 -0.191,0.425 -0.429,0.425 -0.235,0 -0.426,-0.191 -0.426,-0.425 0,-0.239 0.191,-0.43 0.426,-0.43 0.238,0 0.429,0.191 0.429,0.43 z"
           style="fill:#ffffff;fill-opacity:1;fill-rule:nonzero;stroke:none"
           id="path644" /><path
           d="m 381.789,326.578 c 0,0.238 -0.191,0.43 -0.43,0.43 -0.234,0 -0.425,-0.192 -0.425,-0.43 0,-0.234 0.191,-0.426 0.425,-0.426 0.239,0 0.43,0.192 0.43,0.426 z"
           style="fill:#ffffff;fill-opacity:1;fill-rule:nonzero;stroke:none"
           id="path646" /><path
           d="m 417.789,322.98 c 0,0.235 -0.191,0.426 -0.43,0.426 -0.234,0 -0.425,-0.191 -0.425,-0.426 0,-0.238 0.191,-0.429 0.425,-0.429 0.239,0 0.43,0.191 0.43,0.429 z"
           style="fill:#ffffff;fill-opacity:1;fill-rule:nonzero;stroke:none"
           id="path648" /><path
           d="m 417.789,315.781 c 0,0.235 -0.191,0.426 -0.43,0.426 -0.234,0 -0.425,-0.191 -0.425,-0.426 0,-0.238 0.191,-0.429 0.425,-0.429 0.239,0 0.43,0.191 0.43,0.429 z"
           style="fill:#ffffff;fill-opacity:1;fill-rule:nonzero;stroke:none"
           id="path650" /><path
           d="m 417.789,308.578 c 0,0.238 -0.191,0.43 -0.43,0.43 -0.234,0 -0.425,-0.192 -0.425,-0.43 0,-0.234 0.191,-0.426 0.425,-0.426 0.239,0 0.43,0.192 0.43,0.426 z"
           style="fill:#ffffff;fill-opacity:1;fill-rule:nonzero;stroke:none"
           id="path652" /><path
           d="m 417.789,301.379 c 0,0.238 -0.191,0.43 -0.43,0.43 -0.234,0 -0.425,-0.192 -0.425,-0.43 0,-0.234 0.191,-0.426 0.425,-0.426 0.239,0 0.43,0.192 0.43,0.426 z"
           style="fill:#ffffff;fill-opacity:1;fill-rule:nonzero;stroke:none"
           id="path654" /><path
           d="m 493.387,337.379 c 0,0.238 -0.192,0.43 -0.426,0.43 -0.238,0 -0.43,-0.192 -0.43,-0.43 0,-0.234 0.192,-0.426 0.43,-0.426 0.234,0 0.426,0.192 0.426,0.426 z"
           style="fill:#ffffff;fill-opacity:1;fill-rule:nonzero;stroke:none"
           id="path656" /><path
           d="m 547.387,258.18 c 0,0.238 -0.192,0.429 -0.426,0.429 -0.238,0 -0.43,-0.191 -0.43,-0.429 0,-0.235 0.192,-0.426 0.43,-0.426 0.234,0 0.426,0.191 0.426,0.426 z"
           style="fill:#ffffff;fill-opacity:1;fill-rule:nonzero;stroke:none"
           id="path658" /><path
           d="m 504.188,258.18 c 0,0.238 -0.192,0.429 -0.426,0.429 -0.239,0 -0.43,-0.191 -0.43,-0.429 0,-0.235 0.191,-0.426 0.43,-0.426 0.234,0 0.426,0.191 0.426,0.426 z"
           style="fill:#ffffff;fill-opacity:1;fill-rule:nonzero;stroke:none"
           id="path660" /><path
           d="m 532.988,258.18 c 0,0.238 -0.191,0.429 -0.429,0.429 -0.235,0 -0.426,-0.191 -0.426,-0.429 0,-0.235 0.191,-0.426 0.426,-0.426 0.238,0 0.429,0.191 0.429,0.426 z"
           style="fill:#ffffff;fill-opacity:1;fill-rule:nonzero;stroke:none"
           id="path662" /><path
           d="m 518.586,258.18 c 0,0.238 -0.191,0.429 -0.426,0.429 -0.234,0 -0.426,-0.191 -0.426,-0.429 0,-0.235 0.192,-0.426 0.426,-0.426 0.235,0 0.426,0.191 0.426,0.426 z"
           style="fill:#ffffff;fill-opacity:1;fill-rule:nonzero;stroke:none"
           id="path664" /><path
           d="m 522.188,301.379 c 0,0.238 -0.192,0.43 -0.426,0.43 -0.239,0 -0.43,-0.192 -0.43,-0.43 0,-0.234 0.191,-0.426 0.43,-0.426 0.234,0 0.426,0.192 0.426,0.426 z"
           style="fill:#ffffff;fill-opacity:1;fill-rule:nonzero;stroke:none"
           id="path666" /><path
           d="m 522.188,315.781 c 0,0.235 -0.192,0.426 -0.426,0.426 -0.239,0 -0.43,-0.191 -0.43,-0.426 0,-0.238 0.191,-0.429 0.43,-0.429 0.234,0 0.426,0.191 0.426,0.429 z"
           style="fill:#ffffff;fill-opacity:1;fill-rule:nonzero;stroke:none"
           id="path668" /><path
           d="m 486.188,297.781 c 0,0.235 -0.192,0.426 -0.426,0.426 -0.239,0 -0.43,-0.191 -0.43,-0.426 0,-0.238 0.191,-0.429 0.43,-0.429 0.234,0 0.426,0.191 0.426,0.429 z"
           style="fill:#ffffff;fill-opacity:1;fill-rule:nonzero;stroke:none"
           id="path670" /><path
           d="m 307.102,330.613 c 0,0.239 -0.192,0.43 -0.426,0.43 -0.238,0 -0.43,-0.191 -0.43,-0.43 0,-0.234 0.192,-0.425 0.43,-0.425 0.234,0 0.426,0.191 0.426,0.425 z"
           style="fill:#ffffff;fill-opacity:1;fill-rule:nonzero;stroke:none"
           id="path672" /><path
           d="m 330.742,334.637 c 0,0.234 -0.191,0.425 -0.426,0.425 -0.238,0 -0.429,-0.191 -0.429,-0.425 0,-0.239 0.191,-0.43 0.429,-0.43 0.235,0 0.426,0.191 0.426,0.43 z"
           style="fill:#ffffff;fill-opacity:1;fill-rule:nonzero;stroke:none"
           id="path674" /><path
           d="m 338.602,334.637 c 0,0.234 -0.192,0.425 -0.426,0.425 -0.238,0 -0.43,-0.191 -0.43,-0.425 0,-0.239 0.192,-0.43 0.43,-0.43 0.234,0 0.426,0.191 0.426,0.43 z"
           style="fill:#ffffff;fill-opacity:1;fill-rule:nonzero;stroke:none"
           id="path676" /><path
           d="m 326.828,326.578 c 0,0.238 -0.191,0.43 -0.43,0.43 -0.234,0 -0.425,-0.192 -0.425,-0.43 0,-0.234 0.191,-0.426 0.425,-0.426 0.239,0 0.43,0.192 0.43,0.426 z"
           style="fill:#ffffff;fill-opacity:1;fill-rule:nonzero;stroke:none"
           id="path678" /><path
           d="m 334.672,326.578 c 0,0.238 -0.192,0.43 -0.426,0.43 -0.238,0 -0.43,-0.192 -0.43,-0.43 0,-0.234 0.192,-0.426 0.43,-0.426 0.234,0 0.426,0.192 0.426,0.426 z"
           style="fill:#ffffff;fill-opacity:1;fill-rule:nonzero;stroke:none"
           id="path680" /><path
           d="m 346.449,334.637 c 0,0.234 -0.191,0.425 -0.429,0.425 -0.235,0 -0.426,-0.191 -0.426,-0.425 0,-0.239 0.191,-0.43 0.426,-0.43 0.238,0 0.429,0.191 0.429,0.43 z"
           style="fill:#ffffff;fill-opacity:1;fill-rule:nonzero;stroke:none"
           id="path682" /><path
           d="m 354.309,334.637 c 0,0.234 -0.192,0.425 -0.43,0.425 -0.234,0 -0.426,-0.191 -0.426,-0.425 0,-0.239 0.192,-0.43 0.426,-0.43 0.238,0 0.43,0.191 0.43,0.43 z"
           style="fill:#ffffff;fill-opacity:1;fill-rule:nonzero;stroke:none"
           id="path684" /><path
           d="m 362.152,334.637 c 0,0.234 -0.191,0.425 -0.425,0.425 -0.239,0 -0.43,-0.191 -0.43,-0.425 0,-0.239 0.191,-0.43 0.43,-0.43 0.234,0 0.425,0.191 0.425,0.43 z"
           style="fill:#ffffff;fill-opacity:1;fill-rule:nonzero;stroke:none"
           id="path686" /><path
           d="m 370.012,334.637 c 0,0.234 -0.192,0.425 -0.426,0.425 -0.238,0 -0.43,-0.191 -0.43,-0.425 0,-0.239 0.192,-0.43 0.43,-0.43 0.234,0 0.426,0.191 0.426,0.43 z"
           style="fill:#ffffff;fill-opacity:1;fill-rule:nonzero;stroke:none"
           id="path688" /><path
           d="m 350.379,326.578 c 0,0.238 -0.191,0.43 -0.43,0.43 -0.234,0 -0.426,-0.192 -0.426,-0.43 0,-0.234 0.192,-0.426 0.426,-0.426 0.239,0 0.43,0.192 0.43,0.426 z"
           style="fill:#ffffff;fill-opacity:1;fill-rule:nonzero;stroke:none"
           id="path690" /><path
           d="m 358.238,326.578 c 0,0.238 -0.191,0.43 -0.429,0.43 -0.235,0 -0.426,-0.192 -0.426,-0.43 0,-0.234 0.191,-0.426 0.426,-0.426 0.238,0 0.429,0.192 0.429,0.426 z"
           style="fill:#ffffff;fill-opacity:1;fill-rule:nonzero;stroke:none"
           id="path692" /><path
           d="m 366.082,326.578 c 0,0.238 -0.191,0.43 -0.426,0.43 -0.238,0 -0.429,-0.192 -0.429,-0.43 0,-0.234 0.191,-0.426 0.429,-0.426 0.235,0 0.426,0.192 0.426,0.426 z"
           style="fill:#ffffff;fill-opacity:1;fill-rule:nonzero;stroke:none"
           id="path694" /><path
           d="m 373.941,326.578 c 0,0.238 -0.191,0.43 -0.425,0.43 -0.239,0 -0.43,-0.192 -0.43,-0.43 0,-0.234 0.191,-0.426 0.43,-0.426 0.234,0 0.425,0.192 0.425,0.426 z"
           style="fill:#ffffff;fill-opacity:1;fill-rule:nonzero;stroke:none"
           id="path696" /><path
           d="m 428.586,240.18 c 0,0.238 -0.191,0.429 -0.426,0.429 -0.234,0 -0.426,-0.191 -0.426,-0.429 0,-0.235 0.192,-0.426 0.426,-0.426 0.235,0 0.426,0.191 0.426,0.426 z"
           style="fill:#ffffff;fill-opacity:1;fill-rule:nonzero;stroke:none"
           id="path698" /><path
           d="m 428.586,247.379 c 0,0.238 -0.191,0.43 -0.426,0.43 -0.234,0 -0.426,-0.192 -0.426,-0.43 0,-0.234 0.192,-0.426 0.426,-0.426 0.235,0 0.426,0.192 0.426,0.426 z"
           style="fill:#ffffff;fill-opacity:1;fill-rule:nonzero;stroke:none"
           id="path700" /><path
           d="m 453.789,247.379 c 0,0.238 -0.191,0.43 -0.43,0.43 -0.234,0 -0.425,-0.192 -0.425,-0.43 0,-0.234 0.191,-0.426 0.425,-0.426 0.239,0 0.43,0.192 0.43,0.426 z"
           style="fill:#ffffff;fill-opacity:1;fill-rule:nonzero;stroke:none"
           id="path702" /><path
           d="m 482.586,247.379 c 0,0.238 -0.191,0.43 -0.426,0.43 -0.234,0 -0.426,-0.192 -0.426,-0.43 0,-0.234 0.192,-0.426 0.426,-0.426 0.235,0 0.426,0.192 0.426,0.426 z"
           style="fill:#ffffff;fill-opacity:1;fill-rule:nonzero;stroke:none"
           id="path704" /><path
           d="m 475.387,276.18 c 0,0.238 -0.192,0.429 -0.426,0.429 -0.238,0 -0.43,-0.191 -0.43,-0.429 0,-0.235 0.192,-0.426 0.43,-0.426 0.234,0 0.426,0.191 0.426,0.426 z"
           style="fill:#ffffff;fill-opacity:1;fill-rule:nonzero;stroke:none"
           id="path706" /><path
           d="m 486.188,276.18 c 0,0.238 -0.192,0.429 -0.426,0.429 -0.239,0 -0.43,-0.191 -0.43,-0.429 0,-0.235 0.191,-0.426 0.43,-0.426 0.234,0 0.426,0.191 0.426,0.426 z"
           style="fill:#ffffff;fill-opacity:1;fill-rule:nonzero;stroke:none"
           id="path708" /><path
           d="m 306.188,276.18 c 0,0.238 -0.192,0.429 -0.426,0.429 -0.239,0 -0.43,-0.191 -0.43,-0.429 0,-0.235 0.191,-0.426 0.43,-0.426 0.234,0 0.426,0.191 0.426,0.426 z"
           style="fill:#ffffff;fill-opacity:1;fill-rule:nonzero;stroke:none"
           id="path710" /><path
           d="m 306.188,290.578 c 0,0.238 -0.192,0.43 -0.426,0.43 -0.239,0 -0.43,-0.192 -0.43,-0.43 0,-0.234 0.191,-0.426 0.43,-0.426 0.234,0 0.426,0.192 0.426,0.426 z"
           style="fill:#ffffff;fill-opacity:1;fill-rule:nonzero;stroke:none"
           id="path712" /><path
           d="m 342.531,326.578 c 0,0.238 -0.191,0.43 -0.426,0.43 -0.238,0 -0.429,-0.192 -0.429,-0.43 0,-0.234 0.191,-0.426 0.429,-0.426 0.235,0 0.426,0.192 0.426,0.426 z"
           style="fill:#ffffff;fill-opacity:1;fill-rule:nonzero;stroke:none"
           id="path714" /><path
           d="m 352.988,240.18 c 0,0.238 -0.191,0.429 -0.429,0.429 -0.235,0 -0.426,-0.191 -0.426,-0.429 0,-0.235 0.191,-0.426 0.426,-0.426 0.238,0 0.429,0.191 0.429,0.426 z"
           style="fill:#ffffff;fill-opacity:1;fill-rule:nonzero;stroke:none"
           id="path716" /><path
           d="m 367.387,240.18 c 0,0.238 -0.192,0.429 -0.426,0.429 -0.238,0 -0.43,-0.191 -0.43,-0.429 0,-0.235 0.192,-0.426 0.43,-0.426 0.234,0 0.426,0.191 0.426,0.426 z"
           style="fill:#ffffff;fill-opacity:1;fill-rule:nonzero;stroke:none"
           id="path718" /><path
           d="m 381.789,240.18 c 0,0.238 -0.191,0.429 -0.43,0.429 -0.234,0 -0.425,-0.191 -0.425,-0.429 0,-0.235 0.191,-0.426 0.425,-0.426 0.239,0 0.43,0.191 0.43,0.426 z"
           style="fill:#ffffff;fill-opacity:1;fill-rule:nonzero;stroke:none"
           id="path720" /><path
           d="m 457.387,286.98 c 0,0.235 -0.192,0.426 -0.426,0.426 -0.238,0 -0.43,-0.191 -0.43,-0.426 0,-0.238 0.192,-0.429 0.43,-0.429 0.234,0 0.426,0.191 0.426,0.429 z"
           style="fill:#ffffff;fill-opacity:1;fill-rule:nonzero;stroke:none"
           id="path722" /><path
           d="m 450.188,286.98 c 0,0.235 -0.192,0.426 -0.426,0.426 -0.239,0 -0.43,-0.191 -0.43,-0.426 0,-0.238 0.191,-0.429 0.43,-0.429 0.234,0 0.426,0.191 0.426,0.429 z"
           style="fill:#ffffff;fill-opacity:1;fill-rule:nonzero;stroke:none"
           id="path724" /><path
           d="m 442.988,286.98 c 0,0.235 -0.191,0.426 -0.429,0.426 -0.235,0 -0.426,-0.191 -0.426,-0.426 0,-0.238 0.191,-0.429 0.426,-0.429 0.238,0 0.429,0.191 0.429,0.429 z"
           style="fill:#ffffff;fill-opacity:1;fill-rule:nonzero;stroke:none"
           id="path726" /><path
           d="m 428.586,254.578 c 0,0.238 -0.191,0.43 -0.426,0.43 -0.234,0 -0.426,-0.192 -0.426,-0.43 0,-0.234 0.192,-0.426 0.426,-0.426 0.235,0 0.426,0.192 0.426,0.426 z"
           style="fill:#ffffff;fill-opacity:1;fill-rule:nonzero;stroke:none"
           id="path728" /><path
           d="m 414.188,286.98 c 0,0.235 -0.192,0.426 -0.426,0.426 -0.239,0 -0.43,-0.191 -0.43,-0.426 0,-0.238 0.191,-0.429 0.43,-0.429 0.234,0 0.426,0.191 0.426,0.429 z"
           style="fill:#ffffff;fill-opacity:1;fill-rule:nonzero;stroke:none"
           id="path730" /><path
           d="m 414.188,265.379 c 0,0.238 -0.192,0.43 -0.426,0.43 -0.239,0 -0.43,-0.192 -0.43,-0.43 0,-0.234 0.191,-0.426 0.43,-0.426 0.234,0 0.426,0.192 0.426,0.426 z"
           style="fill:#ffffff;fill-opacity:1;fill-rule:nonzero;stroke:none"
           id="path732" /><path
           d="m 424.988,265.379 c 0,0.238 -0.191,0.43 -0.429,0.43 -0.235,0 -0.426,-0.192 -0.426,-0.43 0,-0.234 0.191,-0.426 0.426,-0.426 0.238,0 0.429,0.192 0.429,0.426 z"
           style="fill:#ffffff;fill-opacity:1;fill-rule:nonzero;stroke:none"
           id="path734" /><path
           d="m 424.988,286.98 c 0,0.235 -0.191,0.426 -0.429,0.426 -0.235,0 -0.426,-0.191 -0.426,-0.426 0,-0.238 0.191,-0.429 0.426,-0.429 0.238,0 0.429,0.191 0.429,0.429 z"
           style="fill:#ffffff;fill-opacity:1;fill-rule:nonzero;stroke:none"
           id="path736" /><path
           d="m 478.988,337.379 c 0,0.238 -0.191,0.43 -0.429,0.43 -0.235,0 -0.426,-0.192 -0.426,-0.43 0,-0.234 0.191,-0.426 0.426,-0.426 0.238,0 0.429,0.192 0.429,0.426 z"
           style="fill:#ffffff;fill-opacity:1;fill-rule:nonzero;stroke:none"
           id="path738" /><path
           d="m 464.586,337.379 c 0,0.238 -0.191,0.43 -0.426,0.43 -0.234,0 -0.426,-0.192 -0.426,-0.43 0,-0.234 0.192,-0.426 0.426,-0.426 0.235,0 0.426,0.192 0.426,0.426 z"
           style="fill:#ffffff;fill-opacity:1;fill-rule:nonzero;stroke:none"
           id="path740" /><path
           d="m 475.387,297.781 c 0,0.235 -0.192,0.426 -0.426,0.426 -0.238,0 -0.43,-0.191 -0.43,-0.426 0,-0.238 0.192,-0.429 0.43,-0.429 0.234,0 0.426,0.191 0.426,0.429 z"
           style="fill:#ffffff;fill-opacity:1;fill-rule:nonzero;stroke:none"
           id="path742" /><path
           d="m 439.387,301.379 c 0,0.238 -0.192,0.43 -0.426,0.43 -0.238,0 -0.43,-0.192 -0.43,-0.43 0,-0.234 0.192,-0.426 0.43,-0.426 0.234,0 0.426,0.192 0.426,0.426 z"
           style="fill:#ffffff;fill-opacity:1;fill-rule:nonzero;stroke:none"
           id="path744" /><path
           d="m 439.387,308.578 c 0,0.238 -0.192,0.43 -0.426,0.43 -0.238,0 -0.43,-0.192 -0.43,-0.43 0,-0.234 0.192,-0.426 0.43,-0.426 0.234,0 0.426,0.192 0.426,0.426 z"
           style="fill:#ffffff;fill-opacity:1;fill-rule:nonzero;stroke:none"
           id="path746" /><path
           d="m 439.387,315.781 c 0,0.235 -0.192,0.426 -0.426,0.426 -0.238,0 -0.43,-0.191 -0.43,-0.426 0,-0.238 0.192,-0.429 0.43,-0.429 0.234,0 0.426,0.191 0.426,0.429 z"
           style="fill:#ffffff;fill-opacity:1;fill-rule:nonzero;stroke:none"
           id="path748" /><path
           d="m 439.387,322.98 c 0,0.235 -0.192,0.426 -0.426,0.426 -0.238,0 -0.43,-0.191 -0.43,-0.426 0,-0.238 0.192,-0.429 0.43,-0.429 0.234,0 0.426,0.191 0.426,0.429 z"
           style="fill:#ffffff;fill-opacity:1;fill-rule:nonzero;stroke:none"
           id="path750" /><path
           d="m 385.387,265.379 c 0,0.238 -0.192,0.43 -0.426,0.43 -0.238,0 -0.43,-0.192 -0.43,-0.43 0,-0.234 0.192,-0.426 0.43,-0.426 0.234,0 0.426,0.192 0.426,0.426 z"
           style="fill:#ffffff;fill-opacity:1;fill-rule:nonzero;stroke:none"
           id="path752" /><path
           d="m 406.988,265.379 c 0,0.238 -0.191,0.43 -0.429,0.43 -0.235,0 -0.426,-0.192 -0.426,-0.43 0,-0.234 0.191,-0.426 0.426,-0.426 0.238,0 0.429,0.192 0.429,0.426 z"
           style="fill:#ffffff;fill-opacity:1;fill-rule:nonzero;stroke:none"
           id="path754" /><path
           d="m 514.988,232.98 c 0,0.235 -0.191,0.426 -0.429,0.426 -0.235,0 -0.426,-0.191 -0.426,-0.426 0,-0.238 0.191,-0.429 0.426,-0.429 0.238,0 0.429,0.191 0.429,0.429 z"
           style="fill:#ffffff;fill-opacity:1;fill-rule:nonzero;stroke:none"
           id="path756" /><path
           d="m 417.789,236.578 c 0,0.238 -0.191,0.43 -0.43,0.43 -0.234,0 -0.425,-0.192 -0.425,-0.43 0,-0.234 0.191,-0.426 0.425,-0.426 0.239,0 0.43,0.192 0.43,0.426 z"
           style="fill:#ffffff;fill-opacity:1;fill-rule:nonzero;stroke:none"
           id="path758" /><path
           d="m 432.188,340.98 c 0,0.235 -0.192,0.426 -0.426,0.426 -0.239,0 -0.43,-0.191 -0.43,-0.426 0,-0.238 0.191,-0.429 0.43,-0.429 0.234,0 0.426,0.191 0.426,0.429 z"
           style="fill:#ffffff;fill-opacity:1;fill-rule:nonzero;stroke:none"
           id="path760" /><path
           d="m 453.789,322.98 c 0,0.235 -0.191,0.426 -0.43,0.426 -0.234,0 -0.425,-0.191 -0.425,-0.426 0,-0.238 0.191,-0.429 0.425,-0.429 0.239,0 0.43,0.191 0.43,0.429 z"
           style="fill:#ffffff;fill-opacity:1;fill-rule:nonzero;stroke:none"
           id="path762" /><path
           d="m 345.789,315.781 c 0,0.235 -0.191,0.426 -0.43,0.426 -0.234,0 -0.425,-0.191 -0.425,-0.426 0,-0.238 0.191,-0.429 0.425,-0.429 0.239,0 0.43,0.191 0.43,0.429 z"
           style="fill:#ffffff;fill-opacity:1;fill-rule:nonzero;stroke:none"
           id="path764" /><path
           d="m 406.988,315.781 c 0,0.235 -0.191,0.426 -0.429,0.426 -0.235,0 -0.426,-0.191 -0.426,-0.426 0,-0.238 0.191,-0.429 0.426,-0.429 0.238,0 0.429,0.191 0.429,0.429 z"
           style="fill:#ffffff;fill-opacity:1;fill-rule:nonzero;stroke:none"
           id="path766" /></g></g></g></svg>
